<svg width="140.5" height="117.5" viewBox="0 0 281 235" fill="none" xmlns="http://www.w3.org/2000/svg">
<path d="M4.81956 0C2.23436 0 0.13623 2.1056 0.13623 4.7V202.1C0.13623 204.694 2.23436 206.8 4.81956 206.8H28.2362V230.3C28.2362 232.894 30.3344 235 32.9196 235H151.046H276.453C279.038 235 281.136 232.894 281.136 230.3V205.047V32.9C281.136 30.3056 279.038 28.2 276.453 28.2H253.036V4.7C253.036 2.1056 250.938 0 248.353 0H4.81956ZM9.5029 9.4H243.67V28.2H32.9196C30.3344 28.2 28.2362 30.3056 28.2362 32.9V152.162V197.4H9.5029V9.4ZM37.6029 37.6H248.353H271.77V192.672L228.44 143.754C226.66 141.747 223.217 141.747 221.442 143.754L187.479 182.107L97.3063 80.3039C95.5266 78.297 92.0837 78.297 90.3087 80.3039L37.6029 139.807V37.6ZM192.153 70.5C179.241 70.5 168.736 81.0421 168.736 94C168.736 106.958 179.241 117.5 192.153 117.5C205.065 117.5 215.57 106.958 215.57 94C215.57 81.0421 205.065 70.5 192.153 70.5ZM192.153 79.9C199.899 79.9 206.203 86.2262 206.203 94C206.203 101.774 199.899 108.1 192.153 108.1C184.407 108.1 178.103 101.774 178.103 94C178.103 86.2262 184.407 79.9 192.153 79.9ZM93.8029 90.5025L181.204 189.175L148.942 225.6H37.6029V202.1V153.953L93.8029 90.5025ZM224.936 153.953L271.77 206.828V225.6H161.473L190.973 192.296L224.936 153.953Z" fill="#606060"/>
</svg>
