<svg width="29" height="23" viewBox="0 0 29 23" fill="none" xmlns="http://www.w3.org/2000/svg">
<path d="M3.5 0.5C1.99704 0.5 0.75 1.74704 0.75 3.25V19.75C0.75 21.253 1.99704 22.5 3.5 22.5H25.5C27.003 22.5 28.25 21.253 28.25 19.75V3.25C28.25 1.74704 27.003 0.5 25.5 0.5H3.5ZM3.5 3.25H25.5V19.75H3.5V3.25ZM11.75 6C11.3853 6 11.0356 6.14487 10.7777 6.40273C10.5199 6.66059 10.375 7.01033 10.375 7.375C10.375 7.73967 10.5199 8.08941 10.7777 8.34727C11.0356 8.60513 11.3853 8.75 11.75 8.75C12.1147 8.75 12.4644 8.60513 12.7223 8.34727C12.9801 8.08941 13.125 7.73967 13.125 7.375C13.125 7.01033 12.9801 6.66059 12.7223 6.40273C12.4644 6.14487 12.1147 6 11.75 6ZM17.9375 10.125L13.125 15.625L9.6875 12.1875L5.94385 17H23.0938L17.9375 10.125Z" fill="#414141"/>
</svg>
