<?xml version="1.0" encoding="utf-8"?>
<!-- Generator: Adobe Illustrator 25.4.1, SVG Export Plug-In . SVG Version: 6.00 Build 0)  -->
<svg version="1.1" id="Шар_1" xmlns="http://www.w3.org/2000/svg" xmlns:xlink="http://www.w3.org/1999/xlink" x="0px" y="0px"
	 viewBox="0 0 600 400" style="enable-background:new 0 0 600 400;" xml:space="preserve">
<style type="text/css">
	.wholeLogo {filter: drop-shadow(10px 10px 10px #0000003A)}
	.st0{enable-background:new    ;}
	.st1{clip-path:url(#SVGID_00000152228529414440298470000013080936344193204616_);enable-background:new    ;}
	.st2{fill:#727272;}
	.st3{fill:#787878;}
	.st4{fill:#6C6C6C;}
	.st5{fill:#808080;}
	.st6{fill:#767676;}
	.st7{clip-path:url(#SVGID_00000123413367466533457300000015662204407503851689_);enable-background:new    ;}
	.st8{clip-path:url(#SVGID_00000103256475383249562450000013298927315002419843_);enable-background:new    ;}
	.st9{fill:#FCFCFC;}
	.st10{clip-path:url(#SVGID_00000070096371457952481080000000012428888368592003_);enable-background:new    ;}
	.st11{clip-path:url(#SVGID_00000023999257958284241450000005330733557998879149_);enable-background:new    ;}
	.st12{clip-path:url(#SVGID_00000003827605071763847060000004355799005637383307_);enable-background:new    ;}
	.st13{clip-path:url(#SVGID_00000162324339780071602930000003116051181479009950_);enable-background:new    ;}
	.st14{clip-path:url(#SVGID_00000085933189548098722210000013540455958377167770_);enable-background:new    ;}
	.st15{clip-path:url(#SVGID_00000177483195268627230280000005882721615167114138_);enable-background:new    ;}
	.st16{clip-path:url(#SVGID_00000121966551458189938560000005789489424735142590_);enable-background:new    ;}
	.st17{clip-path:url(#SVGID_00000176724674650816414700000014149710812938171020_);enable-background:new    ;}
	.st18{clip-path:url(#SVGID_00000121277110659955347980000006264139933448047249_);enable-background:new    ;}
	.st19{clip-path:url(#SVGID_00000152262531283786836710000016673072674485403295_);enable-background:new    ;}
	.st20{clip-path:url(#SVGID_00000072238283525878416210000018115018794676825260_);enable-background:new    ;}
	.st21{clip-path:url(#SVGID_00000140727677501677266180000001667857773576393910_);enable-background:new    ;}
	.st22{clip-path:url(#SVGID_00000097470696182800780920000002692430311040027026_);enable-background:new    ;}
	.st23{clip-path:url(#SVGID_00000168075408599074901350000004918588200454267272_);enable-background:new    ;}
	.st24{clip-path:url(#SVGID_00000128457943703752151220000011944272758972103577_);enable-background:new    ;}
	.st25{clip-path:url(#SVGID_00000103230873262421380540000005878580632839290762_);enable-background:new    ;}
	.st26{clip-path:url(#SVGID_00000044897667197436213570000011772279115031087232_);enable-background:new    ;}
	.st27{clip-path:url(#SVGID_00000106114499403655626460000014555298968777919652_);enable-background:new    ;}
	.st28{clip-path:url(#SVGID_00000026151754137314686200000002999777936742280605_);enable-background:new    ;}
	.st29{fill:#676767;}
	.st30{fill:#878787;}
	.st31{fill:#858585;}
	.st32{fill:#666666;}
	.st33{clip-path:url(#SVGID_00000124146997062191066090000011394641912111413903_);enable-background:new    ;}
	.st34{clip-path:url(#SVGID_00000041289700106135394400000017872729110323467158_);enable-background:new    ;}
	.st35{clip-path:url(#SVGID_00000161591439275195098780000002723919478610430615_);enable-background:new    ;}
	.st36{clip-path:url(#SVGID_00000155868155158325013340000001070696532071210889_);enable-background:new    ;}
	.st37{clip-path:url(#SVGID_00000109021266572716110630000011135843259139250067_);enable-background:new    ;}
	.st38{clip-path:url(#SVGID_00000125588364486780659900000007743763629850220947_);enable-background:new    ;}
	.st39{clip-path:url(#SVGID_00000020384023164219957100000014792955551234098579_);enable-background:new    ;}
	.st40{clip-path:url(#SVGID_00000025420835620190505960000002628955986080703665_);enable-background:new    ;}
	.st41{clip-path:url(#SVGID_00000111161705588122043350000011345558074787874228_);enable-background:new    ;}
	.st42{clip-path:url(#SVGID_00000178198067812937558070000006883196069013029014_);enable-background:new    ;}
	.st43{clip-path:url(#SVGID_00000183219264839936516910000013536712564212440965_);enable-background:new    ;}
	.st44{clip-path:url(#SVGID_00000066509785728956886500000002130565426373795260_);enable-background:new    ;}
	.st45{clip-path:url(#SVGID_00000029031852059260159110000010179206591016570798_);enable-background:new    ;}
	.st46{clip-path:url(#SVGID_00000054226834665009504470000017115672566890091671_);enable-background:new    ;}
	.st47{clip-path:url(#SVGID_00000038399845899552529600000003236757715773200043_);enable-background:new    ;}
	.st48{clip-path:url(#SVGID_00000099649043993821863380000004379398108528097671_);enable-background:new    ;}
	.st49{clip-path:url(#SVGID_00000101080231678560970960000004835882028142356108_);enable-background:new    ;}
	.st50{clip-path:url(#SVGID_00000168821370632974502600000011065299436151617946_);enable-background:new    ;}
	.st51{clip-path:url(#SVGID_00000111906238590266719770000014093545321957287073_);enable-background:new    ;}
</style>
<g class="wholeLogo">
	<g>
		<g class="st0">
			<g class="st0">
				<g>
					<defs>
						<path id="SVGID_1_" d="M108,130.4l4.5,6.2c-0.7,0-1.4,0.2-2,0.6c-0.7,0.4-1.3,1-1.9,1.6c-0.6,0.7-1.1,1.5-1.6,2.4
							c-0.5,0.9-0.8,1.9-1.1,2.8l-4.5-6.2c0.3-1,0.6-1.9,1.1-2.8c0.5-0.9,1-1.7,1.6-2.4c0.6-0.7,1.2-1.2,1.9-1.6
							C106.7,130.6,107.3,130.4,108,130.4z"/>
					</defs>
					<clipPath id="SVGID_00000020368065813902470350000004371276811223962791_">
						<use xlink:href="#SVGID_1_"  style="overflow:visible;"/>
					</clipPath>
					<g style="clip-path:url(#SVGID_00000020368065813902470350000004371276811223962791_);enable-background:new    ;">
						<path class="st2" d="M108,130.4l4.5,6.2c-0.2,0-0.3,0-0.5,0l-4.5-6.2C107.7,130.4,107.9,130.4,108,130.4"/>
						<path class="st3" d="M107.5,130.4l4.5,6.2c-0.5,0.1-1,0.3-1.6,0.6c-0.5,0.3-1.1,0.8-1.6,1.3l-4.5-6.2c0.5-0.5,1-0.9,1.6-1.3
							C106.5,130.7,107,130.5,107.5,130.4"/>
						<path class="st2" d="M104.4,132.3l4.5,6.2c-0.1,0.1-0.2,0.2-0.3,0.4c-0.6,0.7-1.1,1.5-1.6,2.4c-0.2,0.4-0.4,0.8-0.6,1.2
							l-4.5-6.2c0.2-0.4,0.3-0.8,0.6-1.2c0.5-0.9,1-1.7,1.6-2.4C104.2,132.5,104.3,132.4,104.4,132.3"/>
						<path class="st4" d="M101.9,136.2l4.5,6.2c-0.2,0.5-0.4,1.1-0.5,1.6l-4.5-6.2C101.6,137.3,101.7,136.8,101.9,136.2"/>
					</g>
				</g>
			</g>
			<g>
				<polygon class="st5" points="125.6,130.4 130.1,136.6 112.5,136.6 108,130.4 				"/>
			</g>
			<g>
				<polygon class="st6" points="127.3,124.2 131.8,130.4 130.1,136.6 125.6,130.4 				"/>
			</g>
			<g>
				<polygon class="st6" points="101.4,137.9 105.9,144.1 99.9,166.7 95.4,160.5 				"/>
			</g>
			<g>
				<polygon class="st5" points="111.4,152.1 115.9,158.2 107.3,158.2 102.8,152.1 				"/>
			</g>
			<g class="st0">
				<g>
					<defs>
						<path id="SVGID_00000065050932575262705230000000030142633490398867_" d="M100.4,173l-4.5-6.2c-0.2-0.3-0.4-0.7-0.6-1.1
							c-0.2-0.7-0.3-1.5-0.3-2.4c0-0.9,0.2-1.8,0.4-2.8l4.5,6.2c-0.2,0.9-0.4,1.9-0.4,2.8c0,0.9,0.1,1.7,0.3,2.4
							C100,172.3,100.2,172.6,100.4,173z"/>
					</defs>
					<clipPath id="SVGID_00000085930809394599793400000000131555444282485679_">
						<use xlink:href="#SVGID_00000065050932575262705230000000030142633490398867_"  style="overflow:visible;"/>
					</clipPath>
					<g style="clip-path:url(#SVGID_00000085930809394599793400000000131555444282485679_);enable-background:new    ;">
						<path class="st4" d="M95.4,160.5l4.5,6.2c-0.2,0.9-0.4,1.9-0.4,2.8c0,0.9,0.1,1.7,0.3,2.4c0.1,0.4,0.3,0.8,0.6,1.1l-4.5-6.2
							c-0.2-0.3-0.4-0.7-0.6-1.1c-0.2-0.7-0.3-1.5-0.3-2.4C95.1,162.4,95.2,161.5,95.4,160.5"/>
					</g>
				</g>
			</g>
			<g class="st0">
				<g>
					<defs>
						<path id="SVGID_00000063628654760077245650000013134490126293099154_" d="M91.4,177.6l-4.5-6.2c0.4,0.6,1,1.1,1.6,1.6
							c1,0.7,2.3,1.1,3.8,1.1l4.5,6.2c-1.5,0-2.8-0.4-3.8-1.1C92.4,178.8,91.8,178.2,91.4,177.6z"/>
					</defs>
					<clipPath id="SVGID_00000023265338341337021650000000467728036509851024_">
						<use xlink:href="#SVGID_00000063628654760077245650000013134490126293099154_"  style="overflow:visible;"/>
					</clipPath>
					<g style="clip-path:url(#SVGID_00000023265338341337021650000000467728036509851024_);enable-background:new    ;">
						<path class="st2" d="M92.3,174l4.5,6.2c-0.8,0-1.6-0.1-2.3-0.3l-4.5-6.2C90.7,173.9,91.5,174,92.3,174"/>
						<path class="st4" d="M90,173.7l4.5,6.2c-0.5-0.2-1-0.4-1.5-0.7c-0.6-0.4-1.2-0.9-1.6-1.6l-4.5-6.2c0.4,0.6,1,1.1,1.6,1.6
							C88.9,173.3,89.4,173.5,90,173.7"/>
					</g>
				</g>
			</g>
			<g>
				<polygon class="st5" points="114.9,174 119.4,180.2 96.8,180.2 92.3,174 				"/>
			</g>
			<g>
				<path class="st9" d="M127.3,124.2l-1.6,6.2H108c-0.7,0-1.4,0.2-2,0.6c-0.7,0.4-1.3,1-1.9,1.6c-0.6,0.7-1.1,1.5-1.6,2.4
					c-0.5,0.9-0.8,1.9-1.1,2.8l-6,22.6c-0.2,0.9-0.4,1.9-0.4,2.8c0,0.9,0.1,1.7,0.3,2.4c0.2,0.7,0.6,1.3,1.1,1.7
					c0.5,0.4,1.1,0.6,1.8,0.6h9.1l4.2-15.9h-8.7l1.6-6.2h17.9l-7.4,28.1H92.3c-1.5,0-2.8-0.4-3.8-1.1c-1.1-0.7-1.8-1.6-2.4-2.9
					c-0.5-1.2-0.8-2.6-0.9-4.3c0-1.6,0.2-3.4,0.7-5.3l6-22.6c0.5-1.9,1.2-3.7,2.2-5.4c0.9-1.7,2-3.1,3.2-4.4
					c1.2-1.2,2.5-2.2,3.9-2.9c1.4-0.7,2.9-1.1,4.3-1.1L127.3,124.2L127.3,124.2z"/>
			</g>
			<g>
				<polygon class="st6" points="122.3,145.9 126.8,152.1 119.4,180.2 114.9,174 				"/>
			</g>
		</g>
		<g class="st0">
			<g class="st0">
				<g>
					<defs>
						<path id="SVGID_00000059268987024452709820000010939578175685847722_" d="M148.1,140.7l4.5,6.2c-1.2,0-2.3,0.1-3.1,0.2
							c-0.8,0.1-1.6,0.5-2.1,1c-0.6,0.5-1.1,1.2-1.5,2.2c-0.4,1-0.8,2.3-1.3,3.9l-4.5-6.2c0.4-1.6,0.9-2.9,1.3-3.9
							c0.4-1,0.9-1.7,1.5-2.2s1.3-0.8,2.1-1C145.9,140.8,146.9,140.7,148.1,140.7z"/>
					</defs>
					<clipPath id="SVGID_00000097476584248003854850000002583769373338013347_">
						<use xlink:href="#SVGID_00000059268987024452709820000010939578175685847722_"  style="overflow:visible;"/>
					</clipPath>
					<g style="clip-path:url(#SVGID_00000097476584248003854850000002583769373338013347_);enable-background:new    ;">
						<path class="st2" d="M148.1,140.7l4.5,6.2c-1.1,0-2.1,0.1-2.9,0.2l-4.5-6.2C146.1,140.8,147,140.7,148.1,140.7"/>
						<path class="st3" d="M145.3,140.9l4.5,6.2c-0.1,0-0.2,0-0.3,0c-0.8,0.1-1.6,0.5-2.1,1c-0.1,0.1-0.2,0.2-0.3,0.3l-4.5-6.2
							c0.1-0.1,0.2-0.2,0.3-0.3c0.6-0.5,1.3-0.8,2.1-1C145.1,140.9,145.2,140.9,145.3,140.9"/>
						<path class="st2" d="M142.6,142.2l4.5,6.2c-0.5,0.5-0.9,1.1-1.2,1.9c0,0,0,0.1-0.1,0.1l-4.5-6.2c0,0,0-0.1,0.1-0.1
							C141.8,143.3,142.1,142.6,142.6,142.2"/>
						<path class="st4" d="M141.4,144.2l4.5,6.2c-0.4,1-0.8,2.2-1.2,3.8l-4.5-6.2C140.6,146.4,141,145.2,141.4,144.2"/>
					</g>
				</g>
			</g>
			<g>
				<polygon class="st5" points="163.3,140.7 167.8,146.9 152.7,146.9 148.1,140.7 				"/>
			</g>
			<g>
				<polygon class="st6" points="164.9,134.5 169.4,140.7 167.8,146.9 163.3,140.7 				"/>
			</g>
			<g>
				<polygon class="st6" points="140.1,148 144.7,154.2 137.8,180.2 133.3,174 				"/>
			</g>
			<g>
				<polygon class="st5" points="133.3,174 137.8,180.2 127.8,180.2 123.3,174 				"/>
			</g>
			<g>
				<path class="st9" d="M164.9,134.5l-1.6,6.2h-15.1c-1.2,0-2.3,0.1-3.1,0.2c-0.8,0.1-1.6,0.5-2.1,1c-0.6,0.5-1.1,1.2-1.5,2.2
					c-0.4,1-0.8,2.3-1.3,3.9l-6.9,26h-10l7.2-27.5c1.1-4.2,3.1-7.3,5.9-9.2c2.9-1.9,6.6-2.8,11.3-2.8L164.9,134.5L164.9,134.5z"/>
			</g>
		</g>
		<g class="st0">
			<g>
				<polygon class="st5" points="191.2,140.7 195.8,146.9 180.3,146.9 175.8,140.7 				"/>
			</g>
			<g class="st0">
				<g>
					<defs>
						<path id="SVGID_00000079469719383909324640000011649272475932025733_" d="M193.9,141.6l4.5,6.2c-0.4-0.6-1.3-0.9-2.6-0.9
							l-4.5-6.2C192.6,140.7,193.4,141,193.9,141.6z"/>
					</defs>
					<clipPath id="SVGID_00000120524680879618353350000008817999131841593742_">
						<use xlink:href="#SVGID_00000079469719383909324640000011649272475932025733_"  style="overflow:visible;"/>
					</clipPath>
					<g style="clip-path:url(#SVGID_00000120524680879618353350000008817999131841593742_);enable-background:new    ;">
						<path class="st4" d="M193.9,141.6l4.5,6.2c-0.2-0.3-0.6-0.6-1.1-0.7l-4.5-6.2C193.3,141.1,193.7,141.3,193.9,141.6"/>
						<path class="st2" d="M192.8,140.9l4.5,6.2c-0.4-0.1-0.9-0.2-1.6-0.2l-4.5-6.2C191.9,140.7,192.4,140.8,192.8,140.9"/>
					</g>
				</g>
			</g>
			<g class="st0">
				<g>
					<defs>
						<path id="SVGID_00000132053123917662373120000001783730411515380406_" d="M203.6,136.8l4.5,6.2c0,0.1,0.1,0.1,0.1,0.2
							c0.6,0.9,0.9,2.2,0.9,3.8l-4.5-6.2c0-1.6-0.3-2.8-0.9-3.8C203.6,136.9,203.6,136.9,203.6,136.8z"/>
					</defs>
					<clipPath id="SVGID_00000142135777419510340390000005716620062150717844_">
						<use xlink:href="#SVGID_00000132053123917662373120000001783730411515380406_"  style="overflow:visible;"/>
					</clipPath>
					<g style="clip-path:url(#SVGID_00000142135777419510340390000005716620062150717844_);enable-background:new    ;">
						<path class="st4" d="M203.6,136.8l4.5,6.2c0,0.1,0.1,0.1,0.1,0.2c0.6,0.9,0.9,2.2,0.9,3.8l-4.5-6.2c0-1.6-0.3-2.8-0.9-3.8
							C203.6,136.9,203.6,136.9,203.6,136.8"/>
					</g>
				</g>
			</g>
			<g class="st0">
				<g>
					<defs>
						<path id="SVGID_00000047018175418247512440000013718591069099316388_" d="M179.1,173.6l-4.5-6.2c-0.7-0.9-0.6-3,0.3-6.2
							c0.3-1.1,0.6-2,1-2.7c0.4-0.7,0.9-1.3,1.5-1.8c0.6-0.5,1.4-0.8,2.3-1c0.9-0.2,2.1-0.3,3.4-0.3l4.5,6.2c-1.3,0-2.5,0.1-3.4,0.3
							c-0.9,0.2-1.7,0.6-2.3,1c-0.6,0.5-1.1,1.1-1.5,1.8c-0.4,0.7-0.7,1.6-1,2.7C178.6,170.6,178.5,172.7,179.1,173.6z"/>
					</defs>
					<clipPath id="SVGID_00000100373347222393680710000004630055804699203517_">
						<use xlink:href="#SVGID_00000047018175418247512440000013718591069099316388_"  style="overflow:visible;"/>
					</clipPath>
					<g style="clip-path:url(#SVGID_00000100373347222393680710000004630055804699203517_);enable-background:new    ;">
						<path class="st2" d="M183.1,155.3l4.5,6.2c-1,0-1.8,0.1-2.6,0.2l-4.5-6.2C181.3,155.4,182.2,155.3,183.1,155.3"/>
						<path class="st3" d="M180.6,155.5l4.5,6.2c-0.3,0-0.6,0.1-0.8,0.1c-0.9,0.2-1.7,0.6-2.3,1c-0.2,0.2-0.4,0.3-0.6,0.5l-4.5-6.2
							c0.2-0.2,0.4-0.4,0.6-0.5c0.6-0.5,1.4-0.8,2.3-1C180,155.6,180.3,155.6,180.6,155.5"/>
						<path class="st2" d="M176.9,157.2l4.5,6.2c-0.4,0.4-0.7,0.8-0.9,1.3c-0.1,0.3-0.3,0.6-0.4,0.9l-4.5-6.2
							c0.1-0.3,0.3-0.6,0.4-0.9C176.2,158,176.5,157.6,176.9,157.2"/>
						<path class="st4" d="M175.5,159.4l4.5,6.2c-0.2,0.6-0.4,1.2-0.6,1.8c-0.9,3.2-0.9,5.3-0.3,6.2l-4.5-6.2
							c-0.7-0.9-0.6-3,0.3-6.2C175.1,160.5,175.3,159.9,175.5,159.4"/>
					</g>
				</g>
			</g>
			<g>
				<polygon class="st5" points="191.2,155.3 195.7,161.5 187.6,161.5 183.1,155.3 				"/>
			</g>
			<g class="st0">
				<g>
					<defs>
						<path id="SVGID_00000150791698006120012360000005159368660656914876_" d="M204.6,140.8l4.5,6.2c0,1.6-0.4,3.6-1,6l-4.5-6.2
							C204.2,144.3,204.5,142.3,204.6,140.8z"/>
					</defs>
					<clipPath id="SVGID_00000096052779510306715260000003604980408559567272_">
						<use xlink:href="#SVGID_00000150791698006120012360000005159368660656914876_"  style="overflow:visible;"/>
					</clipPath>
					<g style="clip-path:url(#SVGID_00000096052779510306715260000003604980408559567272_);enable-background:new    ;">
						<path class="st4" d="M204.6,140.8l4.5,6.2c0,1.6-0.4,3.6-1,6l-4.5-6.2C204.2,144.3,204.5,142.3,204.6,140.8"/>
					</g>
				</g>
			</g>
			<g class="st0">
				<g>
					<defs>
						<path id="SVGID_00000145052917111872279770000017514555171140489147_" d="M170.4,177.7l-4.5-6.2c0.5,0.6,1.1,1.2,1.7,1.6
							c1,0.6,2.2,0.9,3.5,0.9l4.5,6.2c-1.4,0-2.6-0.3-3.5-0.9C171.4,178.9,170.9,178.3,170.4,177.7z"/>
					</defs>
					<clipPath id="SVGID_00000167393435419713323270000014201745490979013020_">
						<use xlink:href="#SVGID_00000145052917111872279770000017514555171140489147_"  style="overflow:visible;"/>
					</clipPath>
					<g style="clip-path:url(#SVGID_00000167393435419713323270000014201745490979013020_);enable-background:new    ;">
						<path class="st2" d="M171.1,174l4.5,6.2c-0.8,0-1.6-0.1-2.2-0.3l-4.5-6.2C169.6,173.9,170.3,174,171.1,174"/>
						<path class="st4" d="M168.9,173.7l4.5,6.2c-0.5-0.1-0.9-0.4-1.3-0.6c-0.7-0.4-1.2-1-1.7-1.6l-4.5-6.2c0.5,0.6,1.1,1.2,1.7,1.6
							C168,173.4,168.4,173.6,168.9,173.7"/>
					</g>
				</g>
			</g>
			<g>
				<polygon class="st6" points="203.6,146.7 208.1,152.9 200.9,180.2 196.4,174 				"/>
			</g>
			<g>
				<path class="st9" d="M204.6,140.8c0,1.6-0.4,3.6-1,6l-7.2,27.3h-25.2c-1.4,0-2.6-0.3-3.5-0.9s-1.8-1.5-2.3-2.6s-0.9-2.4-0.9-3.9
					c-0.1-1.5,0.1-3.1,0.6-4.9c0.5-1.7,1.1-3.4,2-4.9c0.9-1.5,1.9-2.9,3-4c1.1-1.1,2.4-2,3.7-2.6c1.3-0.6,2.7-1,4-1h15.2l0.9-3.4
					c0.5-2.1,0.6-3.4,0.2-4.1c-0.4-0.7-1.3-1.1-2.7-1.1h-15.5l1.6-6.2H196c2,0,3.6,0.2,4.9,0.6s2.2,1,2.8,1.9
					C204.3,137.9,204.6,139.2,204.6,140.8z M187.9,167.9l3.3-12.6h-8.1c-1.3,0-2.5,0.1-3.4,0.3c-0.9,0.2-1.7,0.6-2.3,1
					c-0.6,0.5-1.1,1.1-1.5,1.8c-0.4,0.7-0.7,1.6-1,2.7c-1.2,4.5-0.9,6.7,0.8,6.7L187.9,167.9"/>
			</g>
			<g>
				<polygon class="st5" points="196.4,174 200.9,180.2 175.7,180.2 171.1,174 				"/>
			</g>
		</g>
		<g class="st0">
			<g>
				<polygon class="st5" points="227.7,140.7 232.2,146.9 225.2,146.9 220.7,140.7 				"/>
			</g>
			<g class="st0">
				<g>
					<defs>
						<path id="SVGID_00000119114231198126709630000011924511608160696977_" d="M233.9,141.8l4.5,6.2c-0.1-0.1-0.2-0.2-0.3-0.3
							c-0.5-0.4-1.2-0.6-2.1-0.7c-1-0.1-2.2-0.1-3.7-0.1l-4.5-6.2c1.5,0,2.8,0.1,3.7,0.1c1,0.1,1.7,0.3,2.1,0.7
							C233.7,141.6,233.8,141.7,233.9,141.8z"/>
					</defs>
					<clipPath id="SVGID_00000147910522063258147630000005778294430838116488_">
						<use xlink:href="#SVGID_00000119114231198126709630000011924511608160696977_"  style="overflow:visible;"/>
					</clipPath>
					<g style="clip-path:url(#SVGID_00000147910522063258147630000005778294430838116488_);enable-background:new    ;">
						<path class="st4" d="M233.9,141.8l4.5,6.2c-0.1-0.1-0.2-0.2-0.3-0.3c-0.2-0.2-0.5-0.3-0.9-0.4l-4.5-6.2
							c0.4,0.1,0.6,0.3,0.9,0.4C233.7,141.6,233.8,141.7,233.9,141.8"/>
						<path class="st2" d="M232.7,141.1l4.5,6.2c-0.4-0.1-0.8-0.2-1.3-0.2c-1-0.1-2.2-0.1-3.7-0.1l-4.5-6.2c1.5,0,2.8,0.1,3.7,0.1
							C231.9,140.9,232.3,141,232.7,141.1"/>
					</g>
				</g>
			</g>
			<g class="st0">
				<g>
					<defs>
						<path id="SVGID_00000118389174169306962070000008738464199484932789_" d="M243.4,137l4.5,6.2c0.1,0.1,0.1,0.2,0.2,0.3
							c0.6,1,0.9,2.4,0.9,4l-4.5-6.2c0-1.7-0.3-3-0.9-4C243.6,137.2,243.5,137.1,243.4,137z"/>
					</defs>
					<clipPath id="SVGID_00000139973524330415015330000003090790071529143962_">
						<use xlink:href="#SVGID_00000118389174169306962070000008738464199484932789_"  style="overflow:visible;"/>
					</clipPath>
					<g style="clip-path:url(#SVGID_00000139973524330415015330000003090790071529143962_);enable-background:new    ;">
						<path class="st4" d="M243.4,137l4.5,6.2c0.1,0.1,0.1,0.2,0.2,0.3c0.6,1,0.9,2.4,0.9,4l-4.5-6.2c0-1.7-0.3-3-0.9-4
							C243.6,137.2,243.5,137.1,243.4,137"/>
					</g>
				</g>
			</g>
			<g>
				<polygon class="st6" points="220.7,140.7 225.2,146.9 218,174.1 213.5,167.9 				"/>
			</g>
			<g class="st0">
				<g>
					<defs>
						<path id="SVGID_00000096777864362766756620000010301415092224122012_" d="M244.6,141.3l4.5,6.2c0,1.7-0.3,3.7-1,6.1l-4.5-6.2
							C244.2,145,244.6,143,244.6,141.3z"/>
					</defs>
					<clipPath id="SVGID_00000103248341318250954190000007468007270441139600_">
						<use xlink:href="#SVGID_00000096777864362766756620000010301415092224122012_"  style="overflow:visible;"/>
					</clipPath>
					<g style="clip-path:url(#SVGID_00000103248341318250954190000007468007270441139600_);enable-background:new    ;">
						<path class="st4" d="M244.6,141.3l4.5,6.2c0,1.7-0.3,3.7-1,6.1l-4.5-6.2C244.2,145,244.6,143,244.6,141.3"/>
					</g>
				</g>
			</g>
			<g>
				<polygon class="st6" points="243.6,147.4 248.1,153.6 244.5,167.3 240,161.1 				"/>
			</g>
			<g>
				<polygon class="st5" points="225.7,174 230.2,180.2 216.4,180.2 211.9,174 				"/>
			</g>
			<g>
				<polygon class="st5" points="208,189 212.5,195.2 202.5,195.2 198,189 				"/>
			</g>
			<g>
				<polygon class="st6" points="211.9,174 216.4,180.2 212.5,195.2 208,189 				"/>
			</g>
			<g>
				<path class="st9" d="M244.6,141.3c0,1.7-0.3,3.7-1,6.1l-3.6,13.6c-0.6,2.4-1.4,4.5-2.2,6.1c-0.8,1.6-1.8,3-3,4
					c-1.1,1-2.4,1.7-3.9,2.2c-1.5,0.5-3.2,0.7-5.2,0.7h-13.8l-3.9,15h-10l14.4-54.6h23.8c1.9,0,3.4,0.2,4.7,0.6
					c1.3,0.4,2.2,1.2,2.8,2.2C244.2,138.3,244.6,139.6,244.6,141.3z M229.7,161.6l4-15.1c0.4-1.4,0.6-2.5,0.5-3.3
					c0-0.8-0.2-1.4-0.7-1.7c-0.5-0.4-1.2-0.6-2.1-0.7c-1-0.1-2.2-0.1-3.7-0.1h-7l-7.2,27.2h10.6c0.7,0,1.4-0.1,1.9-0.3
					c0.6-0.2,1.1-0.5,1.5-1c0.4-0.5,0.8-1.1,1.1-1.9C229.1,163.9,229.4,162.9,229.7,161.6"/>
			</g>
			<g class="st0">
				<g>
					<defs>
						<path id="SVGID_00000030478999499430297140000010018441627867602084_" d="M240,161.1l4.5,6.2c-0.6,2.4-1.4,4.5-2.2,6.1
							c-0.8,1.6-1.8,3-3,4c-1.1,1-2.4,1.7-3.9,2.2c-1.5,0.5-3.2,0.7-5.2,0.7l-4.5-6.2c1.9,0,3.7-0.2,5.2-0.7
							c1.5-0.4,2.8-1.2,3.9-2.2c1.1-1,2.1-2.3,3-4C238.6,165.6,239.4,163.5,240,161.1z"/>
					</defs>
					<clipPath id="SVGID_00000075853404218602152940000002489473921578615739_">
						<use xlink:href="#SVGID_00000030478999499430297140000010018441627867602084_"  style="overflow:visible;"/>
					</clipPath>
					<g style="clip-path:url(#SVGID_00000075853404218602152940000002489473921578615739_);enable-background:new    ;">
						<path class="st4" d="M240,161.1l4.5,6.2c-0.4,1.6-0.9,3.1-1.4,4.3l-4.5-6.2C239.1,164.1,239.6,162.7,240,161.1"/>
						<path class="st2" d="M238.6,165.4l4.5,6.2c-0.3,0.6-0.5,1.2-0.8,1.8c-0.7,1.4-1.5,2.5-2.4,3.4l-4.5-6.2
							c0.9-0.9,1.7-2.1,2.4-3.4C238,166.6,238.3,166.1,238.6,165.4"/>
						<path class="st3" d="M235.4,170.6l4.5,6.2c-0.2,0.2-0.4,0.4-0.6,0.6c-1.1,1-2.4,1.7-3.9,2.2c-0.7,0.2-1.4,0.4-2.2,0.5
							l-4.5-6.2c0.8-0.1,1.5-0.3,2.2-0.5c1.5-0.4,2.8-1.2,3.9-2.2C235,171,235.2,170.8,235.4,170.6"/>
						<path class="st2" d="M228.6,173.9l4.5,6.2c-0.9,0.1-1.9,0.2-2.9,0.2l-4.5-6.2C226.8,174,227.7,174,228.6,173.9"/>
					</g>
				</g>
			</g>
		</g>
		<g class="st0">
			<g>
				<polygon class="st6" points="266.3,121.9 270.8,128.1 267.5,140.7 263,134.5 				"/>
			</g>
			<g>
				<polygon class="st5" points="271.3,140.7 275.8,146.9 265.8,146.9 261.3,140.7 				"/>
			</g>
			<g class="st0">
				<g>
					<defs>
						<path id="SVGID_00000062151738869285838520000014800222293826760360_" d="M273.7,141.6l4.5,6.2c-0.2-0.2-0.4-0.4-0.7-0.5
							c-0.4-0.2-1-0.3-1.8-0.3l-4.5-6.2c0.7,0,1.3,0.1,1.8,0.3C273.3,141.1,273.5,141.3,273.7,141.6z"/>
					</defs>
					<clipPath id="SVGID_00000139277534685478880070000000127669355514489005_">
						<use xlink:href="#SVGID_00000062151738869285838520000014800222293826760360_"  style="overflow:visible;"/>
					</clipPath>
					<g style="clip-path:url(#SVGID_00000139277534685478880070000000127669355514489005_);enable-background:new    ;">
						<path class="st4" d="M273.7,141.6l4.5,6.2c-0.2-0.2-0.4-0.4-0.7-0.5c-0.1,0-0.2-0.1-0.3-0.1l-4.5-6.2c0.1,0,0.2,0.1,0.3,0.1
							C273.3,141.1,273.5,141.3,273.7,141.6"/>
						<path class="st2" d="M272.8,140.9l4.5,6.2c-0.4-0.1-0.9-0.2-1.5-0.2l-4.5-6.2C271.9,140.7,272.4,140.8,272.8,140.9"/>
					</g>
				</g>
			</g>
			<g class="st0">
				<g>
					<defs>
						<path id="SVGID_00000108999657856711282060000013373024008125986949_" d="M283.6,136.9l4.5,6.2c0,0.1,0.1,0.1,0.1,0.2
							c0.6,0.9,0.9,2.2,0.9,3.8c0,1.6-0.3,3.5-1,5.9l-4.5-6.2c0.6-2.4,0.9-4.3,1-5.9s-0.3-2.8-0.9-3.8
							C283.7,137,283.6,136.9,283.6,136.9z"/>
					</defs>
					<clipPath id="SVGID_00000047039563012969871260000011077863424069121457_">
						<use xlink:href="#SVGID_00000108999657856711282060000013373024008125986949_"  style="overflow:visible;"/>
					</clipPath>
					<g style="clip-path:url(#SVGID_00000047039563012969871260000011077863424069121457_);enable-background:new    ;">
						<path class="st4" d="M283.6,136.9l4.5,6.2c0,0.1,0.1,0.1,0.1,0.2c0.6,0.9,0.9,2.2,0.9,3.8c0,1.6-0.3,3.5-1,5.9l-4.5-6.2
							c0.6-2.4,0.9-4.3,1-5.9s-0.3-2.8-0.9-3.8C283.7,137,283.6,136.9,283.6,136.9"/>
					</g>
				</g>
			</g>
			<g>
				<polygon class="st6" points="261.3,140.7 265.8,146.9 257.1,180.2 252.6,174 				"/>
			</g>
			<g>
				<polygon class="st5" points="252.6,174 257.1,180.2 247,180.2 242.5,174 				"/>
			</g>
			<g>
				<polygon class="st5" points="276.4,174 280.9,180.2 270.9,180.2 266.4,174 				"/>
			</g>
			<g>
				<polygon class="st6" points="283.6,146.7 288.1,152.9 280.9,180.2 276.4,174 				"/>
			</g>
			<g>
				<path class="st9" d="M266.3,121.9l-3.3,12.6H276c2,0,3.6,0.2,4.9,0.6c1.3,0.4,2.2,1.1,2.8,2c0.6,0.9,0.9,2.2,0.9,3.8
					c0,1.6-0.3,3.5-1,5.9l-7.2,27.3h-10l7-26.7c0.4-1.3,0.6-2.4,0.7-3.3s0.1-1.5-0.1-2c-0.2-0.5-0.5-0.8-0.9-1.1
					c-0.4-0.2-1-0.3-1.8-0.3h-10l-8.8,33.3h-10.1l13.7-52.2L266.3,121.9L266.3,121.9z"/>
			</g>
		</g>
		<g class="st0">
			<g>
				<polygon class="st6" points="319.4,121.9 323.9,128.1 321.9,135.7 317.3,129.6 				"/>
			</g>
			<g>
				<polygon class="st5" points="317.3,129.6 321.9,135.7 310,135.7 305.5,129.6 				"/>
			</g>
			<g>
				<polygon class="st9" points="319.4,121.9 317.3,129.6 305.5,129.6 307.5,121.9 				"/>
			</g>
		</g>
		<g class="st0">
			<g>
				<polygon class="st5" points="303.5,140.7 308,146.9 296.5,146.9 292,140.7 				"/>
			</g>
			<g>
				<polygon class="st6" points="315.1,134.5 319.6,140.7 310.8,174.1 306.3,167.9 				"/>
			</g>
			<g>
				<polygon class="st5" points="316,174 320.5,180.2 287.7,180.2 283.2,174 				"/>
			</g>
			<g>
				<polygon class="st6" points="317.6,167.9 322.1,174.1 320.5,180.2 316,174 				"/>
			</g>
			<g>
				<polygon class="st9" points="306.3,167.9 317.6,167.9 316,174 283.2,174 284.8,167.9 296.3,167.9 303.5,140.7 292,140.7 
					293.6,134.5 315.1,134.5 				"/>
			</g>
		</g>
		<g class="st0">
			<g class="st0">
				<g>
					<defs>
						<path id="SVGID_00000165937413036966403280000011763832921393246849_" d="M346.4,140.7l4.5,6.2c-0.8,0-1.5,0.1-2,0.3
							c-0.6,0.2-1.1,0.6-1.5,1.1s-0.8,1.2-1.1,2c-0.4,0.9-0.7,2-1.1,3.3l-4.5-6.2c0.4-1.3,0.7-2.4,1.1-3.3s0.7-1.5,1.1-2
							c0.4-0.5,0.9-0.8,1.5-1.1C344.9,140.8,345.6,140.7,346.4,140.7z"/>
					</defs>
					<clipPath id="SVGID_00000176029972298825859540000011493150533018563511_">
						<use xlink:href="#SVGID_00000165937413036966403280000011763832921393246849_"  style="overflow:visible;"/>
					</clipPath>
					<g style="clip-path:url(#SVGID_00000176029972298825859540000011493150533018563511_);enable-background:new    ;">
						<path class="st2" d="M346.4,140.7l4.5,6.2c-0.4,0-0.7,0-1,0.1l-4.5-6.2C345.7,140.7,346,140.7,346.4,140.7"/>
						<path class="st3" d="M345.4,140.8l4.5,6.2c-0.4,0.1-0.7,0.1-1,0.2c-0.5,0.2-0.9,0.5-1.3,0.8l-4.5-6.2c0.4-0.4,0.8-0.7,1.3-0.8
							C344.6,140.9,345,140.8,345.4,140.8"/>
						<path class="st2" d="M343,141.9l4.5,6.2c-0.1,0.1-0.1,0.1-0.2,0.2c-0.4,0.5-0.8,1.2-1.1,2c0,0,0,0.1,0,0.1l-4.5-6.2
							c0,0,0-0.1,0-0.1c0.4-0.9,0.7-1.5,1.1-2C342.9,142,343,141.9,343,141.9"/>
						<path class="st4" d="M341.7,144.2l4.5,6.2c-0.4,0.9-0.7,1.9-1,3.2l-4.5-6.2C341,146.1,341.3,145,341.7,144.2"/>
					</g>
				</g>
			</g>
			<g>
				<polygon class="st5" points="364.9,140.7 369.5,146.9 350.9,146.9 346.4,140.7 				"/>
			</g>
			<g>
				<polygon class="st6" points="366.6,134.5 371.1,140.7 369.5,146.9 364.9,140.7 				"/>
			</g>
			<g>
				<polygon class="st6" points="340.7,147.4 345.2,153.6 341.4,167.9 336.9,161.8 				"/>
			</g>
			<g class="st0">
				<g>
					<defs>
						<path id="SVGID_00000011739291564107542610000010027550205055032994_" d="M341.4,173.1l-4.5-6.2c-0.7-0.9-0.7-2.7,0-5.2
							l4.5,6.2C340.7,170.5,340.7,172.2,341.4,173.1z"/>
					</defs>
					<clipPath id="SVGID_00000174563318929738106010000008784484418431804820_">
						<use xlink:href="#SVGID_00000011739291564107542610000010027550205055032994_"  style="overflow:visible;"/>
					</clipPath>
					<g style="clip-path:url(#SVGID_00000174563318929738106010000008784484418431804820_);enable-background:new    ;">
						<path class="st4" d="M336.9,161.8l4.5,6.2c-0.7,2.6-0.7,4.3,0,5.2l-4.5-6.2C336.2,166,336.2,164.3,336.9,161.8"/>
					</g>
				</g>
			</g>
			<g class="st0">
				<g>
					<defs>
						<path id="SVGID_00000164485309510747313740000011175622037598269318_" d="M331.5,177.7l-4.5-6.2c0.6,0.8,1.4,1.4,2.5,1.8
							c1.2,0.5,2.8,0.7,4.7,0.7l4.5,6.2c-1.9,0-3.5-0.2-4.7-0.7C333,179.2,332.1,178.6,331.5,177.7z"/>
					</defs>
					<clipPath id="SVGID_00000028309334061270137210000002862793492800229042_">
						<use xlink:href="#SVGID_00000164485309510747313740000011175622037598269318_"  style="overflow:visible;"/>
					</clipPath>
					<g style="clip-path:url(#SVGID_00000028309334061270137210000002862793492800229042_);enable-background:new    ;">
						<path class="st2" d="M334.2,174l4.5,6.2c-1.7,0-3.2-0.2-4.4-0.6l-4.5-6.2C331,173.9,332.5,174,334.2,174"/>
						<path class="st4" d="M329.9,173.5l4.5,6.2c-0.1,0-0.2-0.1-0.4-0.1c-1.1-0.4-1.9-1-2.5-1.8l-4.5-6.2c0.6,0.8,1.4,1.4,2.5,1.8
							C329.6,173.4,329.8,173.4,329.9,173.5"/>
					</g>
				</g>
			</g>
			<g>
				<polygon class="st5" points="356.2,174 360.7,180.2 338.7,180.2 334.2,174 				"/>
			</g>
			<g>
				<path class="st9" d="M366.6,134.5l-1.6,6.2h-18.6c-0.8,0-1.5,0.1-2,0.3c-0.6,0.2-1.1,0.6-1.5,1.1s-0.8,1.2-1.1,2
					c-0.4,0.9-0.7,2-1.1,3.3l-3.8,14.4c-0.8,3.2-0.6,5.1,0.6,5.7c0.6,0.3,2.8,0.5,6.7,0.5c0.7,0,1.6,0,2.7,0s2.5,0,4.2,0h6.7
					l-1.6,6.1h-21.9c-1.9,0-3.5-0.2-4.7-0.7c-1.2-0.4-2.2-1.2-2.8-2.2c-0.6-1-0.9-2.3-0.9-4c0-1.6,0.4-3.7,1-6.1l3.6-13.7
					c0.6-2.4,1.4-4.4,2.2-6.1c0.9-1.6,1.8-3,3-4c1.1-1,2.4-1.7,3.9-2.2s3.2-0.7,5.1-0.7L366.6,134.5L366.6,134.5z"/>
			</g>
			<g>
				<polygon class="st6" points="357.8,167.9 362.3,174.1 360.7,180.2 356.2,174 				"/>
			</g>
		</g>
		<g class="st0">
			<g class="st0">
				<g>
					<defs>
						<path id="SVGID_00000012449667832377885930000001607083004012623512_" d="M383.4,155.4l-4.5-6.2c-0.6-0.8-0.6-2-0.1-3.8
							c0.5-1.7,1.1-2.9,1.9-3.6c0.8-0.7,1.8-1.1,2.9-1.1l4.5,6.2c-1.1,0-2.1,0.4-2.9,1.1s-1.4,1.9-1.9,3.6
							C382.8,153.4,382.9,154.6,383.4,155.4z"/>
					</defs>
					<clipPath id="SVGID_00000014601690491865287020000013108741765275584650_">
						<use xlink:href="#SVGID_00000012449667832377885930000001607083004012623512_"  style="overflow:visible;"/>
					</clipPath>
					<g style="clip-path:url(#SVGID_00000014601690491865287020000013108741765275584650_);enable-background:new    ;">
						<path class="st2" d="M383.6,140.7l4.5,6.2c-0.2,0-0.5,0-0.7,0.1l-4.5-6.2C383.1,140.7,383.3,140.7,383.6,140.7"/>
						<path class="st3" d="M382.9,140.8l4.5,6.2c-0.8,0.1-1.6,0.4-2.2,1c-0.1,0.1-0.2,0.1-0.2,0.2l-4.5-6.2c0.1-0.1,0.2-0.1,0.2-0.2
							C381.3,141.2,382,140.9,382.9,140.8"/>
						<path class="st2" d="M380.4,142l4.5,6.2c-0.5,0.5-0.8,1.1-1.2,1.9l-4.5-6.2C379.6,143.1,380,142.5,380.4,142"/>
						<path class="st4" d="M379.3,143.9l4.5,6.2c-0.2,0.4-0.3,0.9-0.5,1.5c-0.5,1.8-0.4,3,0.1,3.8l-4.5-6.2c-0.6-0.8-0.6-2-0.1-3.8
							C378.9,144.9,379.1,144.4,379.3,143.9"/>
					</g>
				</g>
			</g>
			<g class="st0">
				<g>
					<defs>
						<path id="SVGID_00000180349346014579323090000006069387414027097517_" d="M375,161.8l-4.5-6.2c0.4,0.6,1,1.1,1.6,1.5
							c1,0.6,2.3,0.9,3.8,0.9l4.5,6.2c-1.5,0-2.8-0.3-3.8-0.9C376,162.8,375.5,162.4,375,161.8z"/>
					</defs>
					<clipPath id="SVGID_00000129916113329503389510000004626098677992303769_">
						<use xlink:href="#SVGID_00000180349346014579323090000006069387414027097517_"  style="overflow:visible;"/>
					</clipPath>
					<g style="clip-path:url(#SVGID_00000129916113329503389510000004626098677992303769_);enable-background:new    ;">
						<path class="st2" d="M376,157.9l4.5,6.2c-1,0-1.9-0.1-2.6-0.4l-4.5-6.2C374.1,157.8,375,157.9,376,157.9"/>
						<path class="st4" d="M373.4,157.6l4.5,6.2c-0.4-0.1-0.8-0.3-1.2-0.5c-0.7-0.4-1.2-0.9-1.6-1.5l-4.5-6.2c0.4,0.6,1,1.1,1.6,1.5
							C372.5,157.3,372.9,157.4,373.4,157.6"/>
					</g>
				</g>
			</g>
			<g>
				<polygon class="st5" points="403.4,140.7 408,146.9 388.1,146.9 383.6,140.7 				"/>
			</g>
			<g>
				<polygon class="st6" points="405.1,134.5 409.6,140.7 408,146.9 403.4,140.7 				"/>
			</g>
			<g>
				<polygon class="st5" points="390.2,157.9 394.7,164.1 380.5,164.1 376,157.9 				"/>
			</g>
			<g class="st0">
				<g>
					<defs>
						<path id="SVGID_00000026159202930843314890000015293907639013933482_" d="M391.7,158.6l4.5,6.2c-0.3-0.5-0.8-0.7-1.5-0.7
							l-4.5-6.2C390.8,157.9,391.3,158.2,391.7,158.6z"/>
					</defs>
					<clipPath id="SVGID_00000110439741444074388360000010734262335124863921_">
						<use xlink:href="#SVGID_00000026159202930843314890000015293907639013933482_"  style="overflow:visible;"/>
					</clipPath>
					<g style="clip-path:url(#SVGID_00000110439741444074388360000010734262335124863921_);enable-background:new    ;">
						<path class="st4" d="M391.7,158.6l4.5,6.2c-0.2-0.3-0.5-0.5-0.8-0.6l-4.5-6.2C391.2,158.1,391.5,158.3,391.7,158.6"/>
						<path class="st2" d="M390.9,158l4.5,6.2c-0.2-0.1-0.4-0.1-0.7-0.1l-4.5-6.2C390.4,157.9,390.6,158,390.9,158"/>
					</g>
				</g>
			</g>
			<g>
				<polygon class="st5" points="388.1,174 392.6,180.2 368.4,180.2 363.9,174 				"/>
			</g>
			<g class="st0">
				<g>
					<defs>
						<path id="SVGID_00000088842412797926068750000003436633421415956913_" d="M400.1,152.6l4.5,6.2c0.2,0.3,0.4,0.5,0.5,0.8
							c0.5,1,0.8,2.2,0.8,3.6c0,1.4-0.1,2.9-0.6,4.5c-1,4-2.7,7.1-4.8,9.3c-2.2,2.2-4.8,3.3-8,3.3l-4.5-6.2c3.1,0,5.8-1.1,8-3.3
							c2.2-2.2,3.8-5.3,4.8-9.3c0.4-1.6,0.6-3.1,0.6-4.5c0-1.4-0.3-2.6-0.8-3.6C400.5,153.1,400.3,152.8,400.1,152.6z"/>
					</defs>
					<clipPath id="SVGID_00000174565781848378205170000012411143884207165858_">
						<use xlink:href="#SVGID_00000088842412797926068750000003436633421415956913_"  style="overflow:visible;"/>
					</clipPath>
					<g style="clip-path:url(#SVGID_00000174565781848378205170000012411143884207165858_);enable-background:new    ;">
						<path class="st4" d="M400.1,152.6l4.5,6.2c0.2,0.3,0.4,0.5,0.5,0.8c0.5,1,0.8,2.2,0.8,3.6c0,1.4-0.1,2.9-0.6,4.5
							c-0.3,1.2-0.7,2.4-1.1,3.4l-4.5-6.2c0.4-1.1,0.8-2.2,1.1-3.4c0.4-1.6,0.6-3.1,0.6-4.5c0-1.4-0.3-2.6-0.8-3.6
							C400.5,153.1,400.3,152.8,400.1,152.6"/>
						<path class="st2" d="M399.8,164.9l4.5,6.2c-0.9,2.3-2.1,4.2-3.6,5.7l-4.5-6.2C397.6,169.1,398.8,167.2,399.8,164.9"/>
						<path class="st3" d="M396.2,170.6l4.5,6.2c0,0-0.1,0.1-0.1,0.1c-1.8,1.8-3.8,2.8-6.2,3.2l-4.5-6.2c2.4-0.3,4.5-1.4,6.2-3.2
							C396.1,170.7,396.1,170.7,396.2,170.6"/>
						<path class="st2" d="M389.8,173.9l4.5,6.2c-0.6,0.1-1.2,0.1-1.8,0.1l-4.5-6.2C388.7,174,389.3,174,389.8,173.9"/>
					</g>
				</g>
			</g>
			<g>
				<path class="st9" d="M405.1,134.5l-1.6,6.2h-19.9c-1.1,0-2.1,0.4-2.9,1.1s-1.4,1.9-1.9,3.6c-0.8,3.1,0,4.7,2.3,4.7h13.6
					c1.5,0,2.7,0.3,3.6,0.9c1,0.6,1.7,1.4,2.2,2.4c0.5,1,0.8,2.2,0.8,3.6c0,1.4-0.1,2.9-0.6,4.5c-1,4-2.7,7.1-4.8,9.3
					c-2.2,2.2-4.8,3.3-8,3.3h-24.2l1.6-6.1h22.1c0.9,0,1.7-0.4,2.4-1.2c0.7-0.8,1.3-2.1,1.8-3.8c0.5-1.7,0.5-3,0.2-3.8
					s-0.9-1.2-1.8-1.2H376c-1.5,0-2.8-0.3-3.8-0.9c-1-0.6-1.8-1.4-2.2-2.5c-0.5-1.1-0.7-2.3-0.7-3.8c0-1.5,0.2-3,0.7-4.7
					c1-3.6,2.5-6.4,4.7-8.5c2.2-2,5-3.1,8.4-3.1H405.1z"/>
			</g>
		</g>
		<g class="st0">
			<g>
				<polygon class="st6" points="165.2,204.5 169.7,210.6 165.6,226.2 161.1,220 				"/>
			</g>
			<g>
				<polygon class="st5" points="187.1,204.5 191.6,210.6 169.7,210.6 165.2,204.5 				"/>
			</g>
			<g>
				<polygon class="st6" points="188.7,198.2 193.2,204.4 191.6,210.6 187.1,204.5 				"/>
			</g>
			<g>
				<polygon class="st5" points="175.4,226.1 179.9,232.3 164,232.3 159.5,226.1 				"/>
			</g>
			<g>
				<polygon class="st6" points="177,220 181.5,226.2 179.9,232.3 175.4,226.1 				"/>
			</g>
			<g>
				<polygon class="st6" points="159.5,226.1 164,232.3 159.8,248.2 155.3,242 				"/>
			</g>
			<g>
				<polygon class="st9" points="188.7,198.2 187.1,204.5 165.2,204.5 161.1,220 177,220 175.4,226.1 159.5,226.1 155.3,242 
					177.2,242 175.6,248.1 143.6,248.1 156.7,198.2 				"/>
			</g>
			<g>
				<polygon class="st6" points="177.2,242 181.7,248.2 180.1,254.3 175.6,248.1 				"/>
			</g>
			<g>
				<polygon class="st5" points="175.6,248.1 180.1,254.3 148.1,254.3 143.6,248.1 				"/>
			</g>
		</g>
		<g class="st0">
			<g>
				<polygon class="st29" points="201.9,208.5 206.4,214.7 211.2,228.2 206.7,222.1 				"/>
			</g>
			<g>
				<polygon class="st30" points="228.6,208.5 233.1,214.7 214.6,234 210.1,227.8 				"/>
			</g>
			<g>
				<polygon class="st31" points="203.2,234.4 207.7,240.6 196.2,254.3 191.7,248.1 				"/>
			</g>
			<g>
				<polygon class="st5" points="191.7,248.1 196.2,254.3 186,254.3 181.5,248.1 				"/>
			</g>
			<g>
				<polygon class="st5" points="218.1,248.1 222.6,254.3 212.1,254.3 207.6,248.1 				"/>
			</g>
			<g>
				<polygon class="st32" points="210.1,227.8 214.6,234 222.6,254.3 218.1,248.1 				"/>
			</g>
			<g>
				<polygon class="st9" points="228.6,208.5 210.1,227.8 218.1,248.1 207.6,248.1 203.2,234.4 191.7,248.1 181.5,248.1 
					199.8,228.1 191.8,208.5 201.9,208.5 206.7,222.1 219.1,208.5 				"/>
			</g>
		</g>
		<g class="st0">
			<g>
				<polygon class="st5" points="248.4,214.8 252.9,221 245.9,221 241.4,214.8 				"/>
			</g>
			<g class="st0">
				<g>
					<defs>
						<path id="SVGID_00000127732155305962988010000002594582367634267313_" d="M254.6,215.9l4.5,6.2c-0.1-0.1-0.2-0.2-0.3-0.3
							c-0.5-0.4-1.2-0.6-2.1-0.7c-1-0.1-2.2-0.1-3.7-0.1l-4.5-6.2c1.5,0,2.8,0.1,3.7,0.1c1,0.1,1.7,0.3,2.1,0.7
							C254.4,215.7,254.5,215.8,254.6,215.9z"/>
					</defs>
					<clipPath id="SVGID_00000105421374642597419670000001158476101361203621_">
						<use xlink:href="#SVGID_00000127732155305962988010000002594582367634267313_"  style="overflow:visible;"/>
					</clipPath>
					<g style="clip-path:url(#SVGID_00000105421374642597419670000001158476101361203621_);enable-background:new    ;">
						<path class="st4" d="M254.6,215.9l4.5,6.2c-0.1-0.1-0.2-0.2-0.3-0.3c-0.2-0.2-0.5-0.3-0.9-0.4l-4.5-6.2
							c0.4,0.1,0.6,0.3,0.9,0.4C254.4,215.7,254.5,215.8,254.6,215.9"/>
						<path class="st2" d="M253.4,215.1l4.5,6.2c-0.4-0.1-0.8-0.2-1.3-0.2c-1-0.1-2.2-0.1-3.7-0.1l-4.5-6.2c1.5,0,2.8,0.1,3.7,0.1
							C252.6,214.9,253,215,253.4,215.1"/>
					</g>
				</g>
			</g>
			<g class="st0">
				<g>
					<defs>
						<path id="SVGID_00000112600887317005524050000014744473715643344565_" d="M264.1,211l4.5,6.2c0.1,0.1,0.1,0.2,0.2,0.3
							c0.6,1,0.9,2.4,0.9,4l-4.5-6.2c0-1.7-0.3-3-0.9-4C264.2,211.2,264.2,211.1,264.1,211z"/>
					</defs>
					<clipPath id="SVGID_00000163038983991699525670000002412205121529591428_">
						<use xlink:href="#SVGID_00000112600887317005524050000014744473715643344565_"  style="overflow:visible;"/>
					</clipPath>
					<g style="clip-path:url(#SVGID_00000163038983991699525670000002412205121529591428_);enable-background:new    ;">
						<path class="st4" d="M264.1,211l4.5,6.2c0.1,0.1,0.1,0.2,0.2,0.3c0.6,1,0.9,2.4,0.9,4l-4.5-6.2c0-1.7-0.3-3-0.9-4
							C264.2,211.2,264.2,211.1,264.1,211"/>
					</g>
				</g>
			</g>
			<g>
				<polygon class="st6" points="241.4,214.8 245.9,221 238.7,248.2 234.2,242 				"/>
			</g>
			<g class="st0">
				<g>
					<defs>
						<path id="SVGID_00000008854012004404071490000006306420576530656442_" d="M265.2,215.4l4.5,6.2c0,1.7-0.3,3.7-1,6.1l-4.5-6.2
							C264.9,219.1,265.2,217,265.2,215.4z"/>
					</defs>
					<clipPath id="SVGID_00000081623209303613320190000001739578495647178422_">
						<use xlink:href="#SVGID_00000008854012004404071490000006306420576530656442_"  style="overflow:visible;"/>
					</clipPath>
					<g style="clip-path:url(#SVGID_00000081623209303613320190000001739578495647178422_);enable-background:new    ;">
						<path class="st4" d="M265.2,215.4l4.5,6.2c0,1.7-0.3,3.7-1,6.1l-4.5-6.2C264.9,219.1,265.2,217,265.2,215.4"/>
					</g>
				</g>
			</g>
			<g>
				<polygon class="st6" points="264.3,221.5 268.8,227.7 265.2,241.3 260.7,235.1 				"/>
			</g>
			<g>
				<polygon class="st5" points="246.4,248.1 250.9,254.3 237.1,254.3 232.6,248.1 				"/>
			</g>
			<g>
				<polygon class="st5" points="228.6,263.1 233.1,269.3 223.2,269.3 218.7,263.1 				"/>
			</g>
			<g>
				<polygon class="st6" points="232.6,248.1 237.1,254.3 233.1,269.3 228.6,263.1 				"/>
			</g>
			<g>
				<path class="st9" d="M265.2,215.4c0,1.7-0.3,3.7-1,6.1l-3.6,13.6c-0.6,2.4-1.4,4.5-2.2,6.1c-0.8,1.6-1.8,3-3,4
					c-1.1,1-2.4,1.7-3.9,2.2c-1.5,0.5-3.2,0.7-5.2,0.7h-13.8l-3.9,15h-10l14.4-54.6h23.7c1.9,0,3.4,0.2,4.7,0.6
					c1.3,0.4,2.2,1.2,2.8,2.2C264.9,212.4,265.2,213.7,265.2,215.4z M250.4,235.7l4-15.1c0.4-1.4,0.6-2.5,0.5-3.3
					c0-0.8-0.2-1.4-0.7-1.7c-0.5-0.4-1.2-0.6-2.1-0.7c-1-0.1-2.2-0.1-3.7-0.1h-7l-7.2,27.2h10.6c0.7,0,1.4-0.1,1.9-0.3
					s1.1-0.5,1.5-1c0.4-0.5,0.8-1.1,1.1-1.9C249.8,238,250.1,237,250.4,235.7"/>
			</g>
			<g class="st0">
				<g>
					<defs>
						<path id="SVGID_00000123414067550987560120000004044003357177393068_" d="M260.7,235.1l4.5,6.2c-0.6,2.4-1.4,4.5-2.2,6.1
							c-0.8,1.6-1.8,3-3,4c-1.1,1-2.4,1.7-3.9,2.2c-1.5,0.5-3.2,0.7-5.2,0.7l-4.5-6.2c1.9,0,3.7-0.2,5.2-0.7
							c1.5-0.4,2.8-1.2,3.9-2.2c1.1-1,2.1-2.3,3-4C259.3,239.6,260,237.6,260.7,235.1z"/>
					</defs>
					<clipPath id="SVGID_00000075160044786351843740000010116886386061351337_">
						<use xlink:href="#SVGID_00000123414067550987560120000004044003357177393068_"  style="overflow:visible;"/>
					</clipPath>
					<g style="clip-path:url(#SVGID_00000075160044786351843740000010116886386061351337_);enable-background:new    ;">
						<path class="st4" d="M260.7,235.1l4.5,6.2c-0.4,1.6-0.9,3.1-1.4,4.3l-4.5-6.2C259.8,238.2,260.2,236.8,260.7,235.1"/>
						<path class="st2" d="M259.2,239.5l4.5,6.2c-0.3,0.6-0.5,1.2-0.8,1.8c-0.7,1.4-1.5,2.5-2.4,3.4l-4.5-6.2
							c0.9-0.9,1.7-2.1,2.4-3.4C258.7,240.7,259,240.1,259.2,239.5"/>
						<path class="st3" d="M256.1,244.7l4.5,6.2c-0.2,0.2-0.4,0.4-0.6,0.6c-1.1,1-2.4,1.7-3.9,2.2c-0.7,0.2-1.4,0.4-2.2,0.5
							l-4.5-6.2c0.8-0.1,1.5-0.3,2.2-0.5c1.5-0.4,2.8-1.2,3.9-2.2C255.7,245.1,255.9,244.9,256.1,244.7"/>
						<path class="st2" d="M249.3,247.9l4.5,6.2c-0.9,0.1-1.9,0.2-2.9,0.2l-4.5-6.2C247.4,248.1,248.4,248,249.3,247.9"/>
					</g>
				</g>
			</g>
		</g>
		<g class="st0">
			<g>
				<polygon class="st5" points="287.1,202.2 291.6,208.4 280.3,208.4 275.8,202.2 				"/>
			</g>
			<g>
				<polygon class="st6" points="298.8,195.9 303.3,202.1 291.1,248.2 286.6,242 				"/>
			</g>
			<g>
				<polygon class="st5" points="296.5,248.1 301,254.3 268.2,254.3 263.7,248.1 				"/>
			</g>
			<g>
				<polygon class="st6" points="298.1,242 302.6,248.2 301,254.3 296.5,248.1 				"/>
			</g>
			<g>
				<polygon class="st9" points="298.8,195.9 286.6,242 298.1,242 296.5,248.1 263.7,248.1 265.3,242 276.6,242 287.1,202.2 
					275.8,202.2 277.5,195.9 				"/>
			</g>
		</g>
		<g class="st0">
			<g class="st0">
				<g>
					<defs>
						<path id="SVGID_00000123413254453084730140000001907109500792212909_" d="M325.5,214.8l4.5,6.2c-1.5,0-2.6,0.5-3.5,1.6
							s-1.6,2.8-2.2,5.1l-4.5-6.2c0.6-2.4,1.4-4,2.2-5.1C322.9,215.3,324,214.8,325.5,214.8z"/>
					</defs>
					<clipPath id="SVGID_00000036214713785969147640000004969842958740684460_">
						<use xlink:href="#SVGID_00000123413254453084730140000001907109500792212909_"  style="overflow:visible;"/>
					</clipPath>
					<g style="clip-path:url(#SVGID_00000036214713785969147640000004969842958740684460_);enable-background:new    ;">
						<path class="st2" d="M325.5,214.8l4.5,6.2c-0.3,0-0.5,0-0.8,0.1l-4.5-6.2C325,214.8,325.2,214.8,325.5,214.8"/>
						<path class="st3" d="M324.7,214.8l4.5,6.2c-1,0.1-1.8,0.6-2.5,1.2l-4.5-6.2C322.9,215.4,323.7,215,324.7,214.8"/>
						<path class="st2" d="M322.3,216.1l4.5,6.2c-0.1,0.1-0.2,0.2-0.2,0.3c-0.5,0.6-0.9,1.4-1.3,2.4l-4.5-6.2c0.4-1,0.9-1.8,1.3-2.4
							C322.1,216.2,322.2,216.2,322.3,216.1"/>
						<path class="st4" d="M320.7,218.7l4.5,6.2c-0.3,0.8-0.6,1.7-0.9,2.7l-4.5-6.2C320.1,220.4,320.4,219.5,320.7,218.7"/>
					</g>
				</g>
			</g>
			<g>
				<polygon class="st5" points="332.6,214.8 337.1,221 330,221 325.5,214.8 				"/>
			</g>
			<g class="st0">
				<g>
					<defs>
						<path id="SVGID_00000083059765538817878300000009826315588541887406_" d="M335,215.7l4.5,6.2c-0.4-0.6-1.2-0.9-2.4-0.9
							l-4.5-6.2C333.8,214.8,334.6,215.1,335,215.7z"/>
					</defs>
					<clipPath id="SVGID_00000046302314268347408490000017698334347820500650_">
						<use xlink:href="#SVGID_00000083059765538817878300000009826315588541887406_"  style="overflow:visible;"/>
					</clipPath>
					<g style="clip-path:url(#SVGID_00000046302314268347408490000017698334347820500650_);enable-background:new    ;">
						<path class="st4" d="M335,215.7l4.5,6.2c-0.2-0.3-0.6-0.6-1.1-0.7l-4.5-6.2C334.4,215.1,334.8,215.3,335,215.7"/>
						<path class="st2" d="M333.9,214.9l4.5,6.2c-0.4-0.1-0.8-0.2-1.3-0.2l-4.5-6.2C333.1,214.8,333.6,214.8,333.9,214.9"/>
					</g>
				</g>
			</g>
			<g>
				<polygon class="st6" points="319.8,221.4 324.3,227.6 320.7,241.2 316.2,235 				"/>
			</g>
			<g class="st0">
				<g>
					<defs>
						<path id="SVGID_00000090987412627413061990000013733884773583893948_" d="M344.8,211.1l4.5,6.2c0.1,0.1,0.1,0.2,0.2,0.3
							c0.6,1,0.9,2.3,0.9,4l-4.5-6.2c0-1.6-0.3-3-0.9-4C345,211.3,344.9,211.2,344.8,211.1z"/>
					</defs>
					<clipPath id="SVGID_00000067939565410280491000000006313747599879640492_">
						<use xlink:href="#SVGID_00000090987412627413061990000013733884773583893948_"  style="overflow:visible;"/>
					</clipPath>
					<g style="clip-path:url(#SVGID_00000067939565410280491000000006313747599879640492_);enable-background:new    ;">
						<path class="st4" d="M344.8,211.1l4.5,6.2c0.1,0.1,0.1,0.2,0.2,0.3c0.6,1,0.9,2.3,0.9,4l-4.5-6.2c0-1.6-0.3-3-0.9-4
							C345,211.3,344.9,211.2,344.8,211.1"/>
					</g>
				</g>
			</g>
			<g class="st0">
				<g>
					<defs>
						<path id="SVGID_00000110448610392454457990000013198368422439830972_" d="M320.5,247.3l-4.5-6.2c-0.1-0.2-0.3-0.4-0.3-0.7
							c-0.3-1.1-0.1-2.9,0.5-5.3l4.5,6.2c-0.6,2.5-0.8,4.2-0.5,5.3C320.3,246.8,320.4,247.1,320.5,247.3z"/>
					</defs>
					<clipPath id="SVGID_00000158709732743456736120000011223568922370925210_">
						<use xlink:href="#SVGID_00000110448610392454457990000013198368422439830972_"  style="overflow:visible;"/>
					</clipPath>
					<g style="clip-path:url(#SVGID_00000158709732743456736120000011223568922370925210_);enable-background:new    ;">
						<path class="st4" d="M316.2,235l4.5,6.2c-0.6,2.5-0.8,4.2-0.5,5.3c0.1,0.3,0.2,0.5,0.3,0.7l-4.5-6.2c-0.1-0.2-0.3-0.4-0.3-0.7
							C315.4,239.3,315.6,237.5,316.2,235"/>
					</g>
				</g>
			</g>
			<g class="st0">
				<g>
					<defs>
						<path id="SVGID_00000032607624974007632300000005094514692313238173_" d="M346,215.4l4.5,6.2c0,1.6-0.3,3.7-1,6.1l-4.5-6.2
							C345.7,219.1,346,217.1,346,215.4z"/>
					</defs>
					<clipPath id="SVGID_00000172413357797485305900000004133238500391484335_">
						<use xlink:href="#SVGID_00000032607624974007632300000005094514692313238173_"  style="overflow:visible;"/>
					</clipPath>
					<g style="clip-path:url(#SVGID_00000172413357797485305900000004133238500391484335_);enable-background:new    ;">
						<path class="st4" d="M346,215.4l4.5,6.2c0,1.6-0.3,3.7-1,6.1l-4.5-6.2C345.7,219.1,346,217.1,346,215.4"/>
					</g>
				</g>
			</g>
			<g class="st0">
				<g>
					<defs>
						<path id="SVGID_00000030453346708942875540000004083272489525131924_" d="M310.6,251.8l-4.5-6.2c0.6,0.8,1.4,1.4,2.5,1.8
							c1.3,0.5,2.9,0.7,4.8,0.7l4.5,6.2c-1.9,0-3.5-0.2-4.8-0.7C312,253.2,311.2,252.6,310.6,251.8z"/>
					</defs>
					<clipPath id="SVGID_00000093861028746902374460000000686782984023726253_">
						<use xlink:href="#SVGID_00000030453346708942875540000004083272489525131924_"  style="overflow:visible;"/>
					</clipPath>
					<g style="clip-path:url(#SVGID_00000093861028746902374460000000686782984023726253_);enable-background:new    ;">
						<path class="st2" d="M313.4,248.1l4.5,6.2c-1.8,0-3.3-0.2-4.5-0.6l-4.5-6.2C310.1,247.9,311.6,248.1,313.4,248.1"/>
						<path class="st4" d="M308.9,247.5l4.5,6.2c-0.1,0-0.2-0.1-0.3-0.1c-1.1-0.4-1.9-1-2.5-1.8l-4.5-6.2c0.6,0.8,1.4,1.4,2.5,1.8
							C308.7,247.5,308.8,247.5,308.9,247.5"/>
					</g>
				</g>
			</g>
			<g>
				<polygon class="st6" points="345,221.4 349.5,227.6 345.9,241.3 341.4,235.1 				"/>
			</g>
			<g>
				<polygon class="st5" points="327.3,248.1 331.8,254.3 317.9,254.3 313.4,248.1 				"/>
			</g>
			<g>
				<path class="st9" d="M346,215.4c0,1.6-0.3,3.7-1,6.1l-3.6,13.7c-0.6,2.4-1.4,4.5-2.2,6.1c-0.9,1.6-1.8,3-3,4
					c-1.1,1-2.5,1.7-3.9,2.2c-1.5,0.5-3.1,0.7-5,0.7h-13.9c-1.9,0-3.5-0.2-4.8-0.7c-1.3-0.4-2.2-1.2-2.8-2.2c-0.6-1-0.9-2.3-0.8-4
					c0-1.6,0.4-3.7,1-6.1l3.6-13.7c0.6-2.4,1.4-4.4,2.2-6.1c0.8-1.6,1.8-3,2.9-4c1.1-1,2.4-1.7,3.9-2.2s3.2-0.7,5.2-0.7h13.9
					c1.9,0,3.4,0.2,4.6,0.7c1.2,0.5,2.1,1.2,2.8,2.2C345.7,212.4,346,213.8,346,215.4z M331.2,235.1l3.6-13.7c0.6-2.4,0.8-4,0.5-5.1
					s-1.2-1.6-2.7-1.6h-7.1c-1.5,0-2.6,0.5-3.5,1.6s-1.6,2.8-2.2,5.1l-3.6,13.6c-0.6,2.5-0.8,4.2-0.5,5.3c0.3,1.1,1.2,1.6,2.6,1.6
					h7.1c1.5,0,2.7-0.5,3.5-1.6C329.8,239.3,330.6,237.5,331.2,235.1"/>
			</g>
			<g class="st0">
				<g>
					<defs>
						<path id="SVGID_00000129922973629975562220000004146729468957410220_" d="M341.4,235.1l4.5,6.2c-0.6,2.4-1.4,4.5-2.2,6.1
							c-0.9,1.6-1.8,3-3,4c-1.1,1-2.5,1.7-3.9,2.2c-1.5,0.5-3.1,0.7-5,0.7l-4.5-6.2c1.9,0,3.5-0.2,5-0.7c1.5-0.4,2.8-1.2,3.9-2.2
							c1.1-1,2.1-2.3,3-4C340,239.6,340.8,237.6,341.4,235.1z"/>
					</defs>
					<clipPath id="SVGID_00000155112897197854334640000006873321137952549258_">
						<use xlink:href="#SVGID_00000129922973629975562220000004146729468957410220_"  style="overflow:visible;"/>
					</clipPath>
					<g style="clip-path:url(#SVGID_00000155112897197854334640000006873321137952549258_);enable-background:new    ;">
						<path class="st4" d="M341.4,235.1l4.5,6.2c-0.4,1.6-0.9,3.1-1.4,4.3l-4.5-6.2C340.5,238.2,341,236.8,341.4,235.1"/>
						<path class="st2" d="M340,239.5l4.5,6.2c-0.3,0.6-0.5,1.2-0.8,1.8c-0.7,1.3-1.5,2.4-2.3,3.4l-4.5-6.2c0.9-0.9,1.6-2,2.3-3.4
							C339.5,240.7,339.8,240.1,340,239.5"/>
						<path class="st3" d="M336.9,244.6l4.5,6.2c-0.2,0.2-0.4,0.4-0.6,0.6c-1.1,1-2.5,1.7-3.9,2.2c-0.7,0.2-1.5,0.4-2.2,0.5
							l-4.5-6.2c0.8-0.1,1.5-0.3,2.2-0.5c1.5-0.4,2.8-1.2,3.9-2.2C336.4,245,336.6,244.8,336.9,244.6"/>
						<path class="st2" d="M330,247.9l4.5,6.2c-0.9,0.1-1.8,0.2-2.8,0.2l-4.5-6.2C328.2,248.1,329.2,248,330,247.9"/>
					</g>
				</g>
			</g>
		</g>
		<g class="st0">
			<g class="st0">
				<g>
					<defs>
						<path id="SVGID_00000057112371425404881580000000813521310049970311_" d="M369.8,214.8l4.5,6.2c-1.2,0-2.3,0.1-3.1,0.2
							c-0.8,0.1-1.5,0.5-2.1,1c-0.6,0.5-1.1,1.2-1.5,2.2c-0.4,1-0.8,2.3-1.3,3.9l-4.5-6.2c0.4-1.6,0.9-2.9,1.3-3.9
							c0.4-1,0.9-1.7,1.5-2.2s1.3-0.8,2.1-1C367.5,214.9,368.5,214.8,369.8,214.8z"/>
					</defs>
					<clipPath id="SVGID_00000085215644737680223070000011314502556896909728_">
						<use xlink:href="#SVGID_00000057112371425404881580000000813521310049970311_"  style="overflow:visible;"/>
					</clipPath>
					<g style="clip-path:url(#SVGID_00000085215644737680223070000011314502556896909728_);enable-background:new    ;">
						<path class="st2" d="M369.8,214.8l4.5,6.2c-1.1,0-2.1,0.1-2.9,0.2l-4.5-6.2C367.7,214.8,368.6,214.8,369.8,214.8"/>
						<path class="st3" d="M366.9,214.9l4.5,6.2c-0.1,0-0.2,0-0.3,0c-0.8,0.1-1.5,0.5-2.1,1c-0.1,0.1-0.2,0.2-0.3,0.3l-4.5-6.2
							c0.1-0.1,0.2-0.2,0.3-0.3c0.6-0.5,1.3-0.8,2.1-1C366.7,215,366.8,215,366.9,214.9"/>
						<path class="st2" d="M364.2,216.2l4.5,6.2c-0.5,0.5-0.9,1.1-1.2,1.9c0,0.1,0,0.1-0.1,0.2l-4.5-6.2c0-0.1,0-0.1,0.1-0.2
							C363.4,217.3,363.8,216.7,364.2,216.2"/>
						<path class="st4" d="M363,218.3l4.5,6.2c-0.4,0.9-0.8,2.2-1.2,3.8l-4.5-6.2C362.2,220.5,362.6,219.3,363,218.3"/>
					</g>
				</g>
			</g>
			<g>
				<polygon class="st5" points="384.9,214.8 389.4,221 374.3,221 369.8,214.8 				"/>
			</g>
			<g>
				<polygon class="st6" points="386.5,208.5 391.1,214.7 389.4,221 384.9,214.8 				"/>
			</g>
			<g>
				<polygon class="st6" points="361.8,222.1 366.3,228.2 359.4,254.3 354.9,248.1 				"/>
			</g>
			<g>
				<polygon class="st5" points="354.9,248.1 359.4,254.3 349.4,254.3 344.9,248.1 				"/>
			</g>
			<g>
				<path class="st9" d="M386.5,208.5l-1.6,6.2h-15.1c-1.2,0-2.3,0.1-3.1,0.2c-0.8,0.1-1.5,0.5-2.1,1s-1.1,1.2-1.5,2.2
					c-0.4,1-0.8,2.3-1.3,3.9l-6.9,26h-10l7.2-27.5c1.1-4.2,3.1-7.3,6-9.2c2.9-1.9,6.6-2.8,11.3-2.8L386.5,208.5L386.5,208.5z"/>
			</g>
		</g>
		<g class="st0">
			<g class="st0">
				<g>
					<defs>
						<path id="SVGID_00000183242736388389151190000006138240879491390369_" d="M406.6,214.8l4.5,6.2c-0.8,0-1.5,0.1-2,0.3
							c-0.6,0.2-1.1,0.6-1.5,1.1c-0.4,0.5-0.8,1.2-1.1,2c-0.3,0.9-0.7,1.9-1,3.2l-4.5-6.2c0.3-1.3,0.7-2.3,1-3.2
							c0.3-0.8,0.7-1.5,1.1-2s0.9-0.8,1.5-1.1C405.1,214.9,405.8,214.8,406.6,214.8z"/>
					</defs>
					<clipPath id="SVGID_00000149363085934136305260000014119528834914937275_">
						<use xlink:href="#SVGID_00000183242736388389151190000006138240879491390369_"  style="overflow:visible;"/>
					</clipPath>
					<g style="clip-path:url(#SVGID_00000149363085934136305260000014119528834914937275_);enable-background:new    ;">
						<path class="st2" d="M406.6,214.8l4.5,6.2c-0.4,0-0.7,0-1,0.1l-4.5-6.2C405.9,214.8,406.2,214.8,406.6,214.8"/>
						<path class="st3" d="M405.6,214.9l4.5,6.2c-0.4,0.1-0.7,0.1-1,0.2c-0.5,0.2-1,0.5-1.4,0.9l-4.5-6.2c0.4-0.4,0.9-0.7,1.4-0.9
							C404.9,215,405.2,214.9,405.6,214.9"/>
						<path class="st2" d="M403.2,216l4.5,6.2c0,0.1-0.1,0.1-0.1,0.1c-0.4,0.5-0.8,1.1-1.1,1.9L402,218c0.3-0.8,0.7-1.4,1.1-1.9
							C403.1,216.1,403.1,216,403.2,216"/>
						<path class="st4" d="M402,218l4.5,6.2c0,0.1,0,0.1-0.1,0.1c-0.3,0.9-0.7,1.9-1,3.2l-4.5-6.2c0.3-1.3,0.7-2.3,1-3.2
							C401.9,218.1,402,218,402,218"/>
					</g>
				</g>
			</g>
			<g>
				<polygon class="st5" points="413.5,214.8 418,221 411.1,221 406.6,214.8 				"/>
			</g>
			<g>
				<polygon class="st6" points="400.9,221.3 405.4,227.5 404.2,232.2 399.7,226 				"/>
			</g>
			<g class="st0">
				<g>
					<defs>
						<path id="SVGID_00000031926519763835237850000013831847840762752953_" d="M416.2,215.5l4.5,6.2c-0.2-0.3-0.5-0.4-0.9-0.5
							c-0.5-0.1-1.1-0.1-1.9-0.1l-4.5-6.2c0.8,0,1.4,0.1,1.9,0.1C415.8,215,416,215.2,416.2,215.5z"/>
					</defs>
					<clipPath id="SVGID_00000119839468093336005800000011949077909571397052_">
						<use xlink:href="#SVGID_00000031926519763835237850000013831847840762752953_"  style="overflow:visible;"/>
					</clipPath>
					<g style="clip-path:url(#SVGID_00000119839468093336005800000011949077909571397052_);enable-background:new    ;">
						<path class="st4" d="M416.2,215.5l4.5,6.2c-0.2-0.2-0.4-0.4-0.7-0.5l-4.5-6.2C415.8,215.1,416.1,215.2,416.2,215.5"/>
						<path class="st2" d="M415.5,215l4.5,6.2c0,0-0.1,0-0.2,0c-0.5-0.1-1.1-0.1-1.9-0.1l-4.5-6.2c0.8,0,1.4,0.1,1.9,0.1
							C415.4,214.9,415.5,215,415.5,215"/>
					</g>
				</g>
			</g>
			<g class="st0">
				<g>
					<defs>
						<path id="SVGID_00000071529773571296454650000003694882014638650507_" d="M424.6,210.9l4.5,6.2c0.1,0.1,0.2,0.3,0.3,0.5
							l-4.5-6.2C424.9,211.2,424.8,211,424.6,210.9z"/>
					</defs>
					<clipPath id="SVGID_00000036950787913282966660000007317073362715099273_">
						<use xlink:href="#SVGID_00000071529773571296454650000003694882014638650507_"  style="overflow:visible;"/>
					</clipPath>
					<g style="clip-path:url(#SVGID_00000036950787913282966660000007317073362715099273_);enable-background:new    ;">
						<path class="st4" d="M424.6,210.9l4.5,6.2c0.1,0.1,0.2,0.3,0.3,0.5l-4.5-6.2C424.9,211.2,424.8,211,424.6,210.9"/>
					</g>
				</g>
			</g>
			<g>
				<polygon class="st6" points="398.2,231.7 402.7,237.9 401.8,241.4 397.3,235.2 				"/>
			</g>
			<g class="st0">
				<g>
					<defs>
						<path id="SVGID_00000079477673411055523030000013192577933917531547_" d="M401.4,247.2l-4.5-6.2c0-0.1-0.1-0.1-0.1-0.2
							c-0.3-0.5-0.4-1.2-0.3-2.1c0.1-0.9,0.3-2.1,0.7-3.6l4.5,6.2c-0.4,1.5-0.6,2.7-0.7,3.6c-0.1,0.9,0,1.6,0.3,2.1
							C401.4,247.1,401.4,247.2,401.4,247.2z"/>
					</defs>
					<clipPath id="SVGID_00000110432014226286028640000009309319762550615470_">
						<use xlink:href="#SVGID_00000079477673411055523030000013192577933917531547_"  style="overflow:visible;"/>
					</clipPath>
					<g style="clip-path:url(#SVGID_00000110432014226286028640000009309319762550615470_);enable-background:new    ;">
						<path class="st4" d="M397.3,235.2l4.5,6.2c-0.4,1.5-0.6,2.7-0.7,3.6c-0.1,0.9,0,1.6,0.3,2.1c0,0.1,0.1,0.1,0.1,0.2l-4.5-6.2
							c0-0.1-0.1-0.1-0.1-0.2c-0.3-0.5-0.4-1.2-0.3-2.1S396.9,236.7,397.3,235.2"/>
					</g>
				</g>
			</g>
			<g>
				<polygon class="st5" points="413.1,231.7 417.6,237.9 402.7,237.9 398.2,231.7 				"/>
			</g>
			<g class="st0">
				<g>
					<defs>
						<path id="SVGID_00000021108702626447358640000016914093991317658759_" d="M391.8,251.8l-4.5-6.2c0.6,0.8,1.4,1.4,2.5,1.8
							c1.2,0.5,2.8,0.7,4.7,0.7l4.5,6.2c-1.9,0-3.5-0.2-4.7-0.7C393.2,253.2,392.4,252.6,391.8,251.8z"/>
					</defs>
					<clipPath id="SVGID_00000181791699412507880930000007747040538606421642_">
						<use xlink:href="#SVGID_00000021108702626447358640000016914093991317658759_"  style="overflow:visible;"/>
					</clipPath>
					<g style="clip-path:url(#SVGID_00000181791699412507880930000007747040538606421642_);enable-background:new    ;">
						<path class="st2" d="M394.4,248.1l4.5,6.2c-1.7,0-3.1-0.2-4.3-0.6l-4.5-6.2C391.3,247.9,392.7,248.1,394.4,248.1"/>
						<path class="st4" d="M390.1,247.6l4.5,6.2c-0.1,0-0.3-0.1-0.4-0.1c-1-0.4-1.9-1-2.5-1.8l-4.5-6.2c0.6,0.8,1.4,1.4,2.5,1.8
							C389.9,247.5,390,247.5,390.1,247.6"/>
					</g>
				</g>
			</g>
			<g class="st0">
				<g>
					<defs>
						<path id="SVGID_00000145756569725674030460000007395211901322817210_" d="M425,211.4l4.5,6.2c1.1,1.9,1.1,4.8,0,8.9
							s-2.6,7-4.5,8.8c-2,1.8-4.4,2.6-7.3,2.6l-4.5-6.2c2.9,0,5.4-0.9,7.3-2.6c2-1.8,3.5-4.7,4.5-8.8
							C426.1,216.2,426.1,213.2,425,211.4z"/>
					</defs>
					<clipPath id="SVGID_00000155111154605689315040000014573641963979638706_">
						<use xlink:href="#SVGID_00000145756569725674030460000007395211901322817210_"  style="overflow:visible;"/>
					</clipPath>
					<g style="clip-path:url(#SVGID_00000155111154605689315040000014573641963979638706_);enable-background:new    ;">
						<path class="st4" d="M425,211.4l4.5,6.2c1.1,1.9,1.1,4.8,0,8.9c-0.3,1.3-0.7,2.5-1.2,3.6l-4.5-6.2c0.4-1.1,0.8-2.2,1.2-3.6
							C426.1,216.2,426.1,213.2,425,211.4"/>
						<path class="st2" d="M423.8,223.8l4.5,6.2c-0.8,2-1.8,3.6-2.9,4.8l-4.5-6.2C422.1,227.4,423,225.8,423.8,223.8"/>
						<path class="st3" d="M420.9,228.6l4.5,6.2c-0.1,0.2-0.3,0.3-0.5,0.4c-1.5,1.4-3.3,2.2-5.5,2.5l-4.5-6.2
							c2.1-0.3,3.9-1.1,5.5-2.5C420.6,228.9,420.8,228.7,420.9,228.6"/>
						<path class="st2" d="M415,231.6l4.5,6.2c-0.6,0.1-1.2,0.1-1.9,0.1l-4.5-6.2C413.8,231.7,414.4,231.6,415,231.6"/>
					</g>
				</g>
			</g>
			<g>
				<polygon class="st5" points="414.1,248.1 418.6,254.3 399,254.3 394.4,248.1 				"/>
			</g>
			<g>
				<polygon class="st6" points="415.7,242 420.2,248.2 418.6,254.3 414.1,248.1 				"/>
			</g>
			<g>
				<path class="st9" d="M425,211.4c1.1,1.9,1.1,4.8,0,8.9c-1.1,4.1-2.6,7-4.5,8.8c-2,1.8-4.4,2.6-7.3,2.6h-15l-0.9,3.5
					c-0.4,1.5-0.6,2.7-0.7,3.6c-0.1,0.9,0,1.6,0.3,2.1c0.3,0.5,0.7,0.8,1.3,0.9c0.6,0.1,1.4,0.2,2.4,0.2h15.1l-1.6,6.1h-19.7
					c-1.9,0-3.5-0.2-4.7-0.7c-1.2-0.4-2.1-1.2-2.7-2.2c-0.6-1-0.9-2.3-0.9-4c0-1.6,0.4-3.7,1-6.1l3.6-13.7c0.6-2.4,1.4-4.4,2.2-6.1
					c0.9-1.6,1.8-3,3-4c1.1-1,2.4-1.7,3.9-2.2c1.5-0.4,3.1-0.7,5-0.7h14.4C422,208.5,423.9,209.5,425,211.4z M414.9,223.3
					c0.3-0.8,0.7-1.8,1-3.1c0.3-1.2,0.5-2.2,0.6-2.9c0.1-0.7,0-1.3-0.1-1.6s-0.5-0.6-1-0.7c-0.5-0.1-1.1-0.1-1.9-0.1h-6.9
					c-0.8,0-1.5,0.1-2,0.3c-0.6,0.2-1.1,0.6-1.5,1.1s-0.8,1.2-1.1,2c-0.3,0.9-0.7,1.9-1,3.2l-1.2,4.7h10.9c0.7,0,1.3-0.1,1.8-0.2
					s1-0.4,1.4-0.8C414.2,224.6,414.6,224,414.9,223.3"/>
			</g>
		</g>
		<g class="st0">
			<g class="st0">
				<g>
					<defs>
						<path id="SVGID_00000152256443496295423800000008482235141365275031_" d="M450.1,214.8l4.5,6.2c-1.2,0-2.3,0.1-3.1,0.2
							c-0.8,0.1-1.5,0.5-2.1,1c-0.6,0.5-1.1,1.2-1.5,2.2c-0.4,1-0.8,2.3-1.3,3.9l-4.5-6.2c0.4-1.6,0.9-2.9,1.3-3.9
							c0.4-1,0.9-1.7,1.5-2.2s1.3-0.8,2.1-1C447.8,214.9,448.9,214.8,450.1,214.8z"/>
					</defs>
					<clipPath id="SVGID_00000093164012351757457200000006916555001078404017_">
						<use xlink:href="#SVGID_00000152256443496295423800000008482235141365275031_"  style="overflow:visible;"/>
					</clipPath>
					<g style="clip-path:url(#SVGID_00000093164012351757457200000006916555001078404017_);enable-background:new    ;">
						<path class="st2" d="M450.1,214.8l4.5,6.2c-1.1,0-2.1,0.1-2.9,0.2l-4.5-6.2C448.1,214.8,449,214.8,450.1,214.8"/>
						<path class="st3" d="M447.3,214.9l4.5,6.2c-0.1,0-0.2,0-0.3,0c-0.8,0.1-1.5,0.5-2.1,1c-0.1,0.1-0.2,0.2-0.3,0.3l-4.5-6.2
							c0.1-0.1,0.2-0.2,0.3-0.3c0.6-0.5,1.3-0.8,2.1-1C447.1,215,447.2,215,447.3,214.9"/>
						<path class="st2" d="M444.6,216.2l4.5,6.2c-0.5,0.5-0.9,1.1-1.2,1.9c0,0.1,0,0.1-0.1,0.2l-4.5-6.2c0-0.1,0-0.1,0.1-0.2
							C443.7,217.3,444.1,216.7,444.6,216.2"/>
						<path class="st4" d="M443.3,218.3l4.5,6.2c-0.4,0.9-0.8,2.2-1.2,3.8l-4.5-6.2C442.5,220.5,442.9,219.3,443.3,218.3"/>
					</g>
				</g>
			</g>
			<g>
				<polygon class="st5" points="465.3,214.8 469.8,221 454.6,221 450.1,214.8 				"/>
			</g>
			<g>
				<polygon class="st6" points="466.9,208.5 471.4,214.7 469.8,221 465.3,214.8 				"/>
			</g>
			<g>
				<polygon class="st6" points="442.1,222.1 446.6,228.2 439.8,254.3 435.3,248.1 				"/>
			</g>
			<g>
				<polygon class="st5" points="435.3,248.1 439.8,254.3 429.8,254.3 425.2,248.1 				"/>
			</g>
			<g>
				<path class="st9" d="M466.9,208.5l-1.6,6.2h-15.1c-1.2,0-2.3,0.1-3.1,0.2c-0.8,0.1-1.5,0.5-2.1,1s-1.1,1.2-1.5,2.2
					c-0.4,1-0.8,2.3-1.3,3.9l-6.9,26h-10l7.2-27.5c1.1-4.2,3.1-7.3,6-9.2c2.9-1.9,6.6-2.8,11.3-2.8L466.9,208.5L466.9,208.5z"/>
			</g>
		</g>
	</g>
</g>
</svg>
