<svg width="55" height="55" viewBox="0 0 55 55" fill="none" xmlns="http://www.w3.org/2000/svg">
<path d="M30.1251 8.51182L34.3569 2.718C34.7851 2.13058 35.3983 1.70414 36.098 1.50722C36.7977 1.31029 37.5433 1.35431 38.215 1.63219C38.8867 1.91007 39.4455 2.40569 39.8015 3.03941C40.1576 3.67312 40.2903 4.40814 40.1783 5.12636L39.0773 12.2207C38.999 12.725 39.0406 13.2408 39.1988 13.7261C39.357 14.2113 39.6274 14.6525 39.988 15.0137C40.3485 15.375 40.7892 15.6462 41.2742 15.8053C41.7591 15.9644 42.2748 16.007 42.7793 15.9296L49.8736 14.8217C50.5925 14.7076 51.3288 14.8388 51.9641 15.1941C52.5993 15.5495 53.0964 16.1083 53.3753 16.7806C53.6543 17.4529 53.6988 18.1995 53.5017 18.9002C53.3046 19.6008 52.8774 20.2148 52.2889 20.6431L46.4744 24.8818C46.0621 25.1826 45.7266 25.5765 45.4954 26.0315C45.2641 26.4865 45.1436 26.9896 45.1436 27.5C45.1436 28.0104 45.2641 28.5135 45.4954 28.9685C45.7266 29.4235 46.0621 29.8174 46.4744 30.1182L52.2751 34.3569C52.8636 34.7852 53.2908 35.3992 53.4879 36.0998C53.685 36.8005 53.6405 37.5471 53.3616 38.2194C53.0826 38.8917 52.5855 39.4505 51.9503 39.8059C51.3151 40.1612 50.5787 40.2924 49.8599 40.1783L42.7655 39.0704C42.261 38.993 41.7454 39.0356 41.2604 39.1947C40.7754 39.3538 40.3348 39.625 39.9742 39.9862C39.6136 40.3475 39.3433 40.7887 39.185 41.2739C39.0268 41.7592 38.9852 42.2749 39.0635 42.7793L40.1645 49.8736C40.2765 50.5918 40.1438 51.3269 39.7878 51.9606C39.4317 52.5943 38.8729 53.0899 38.2012 53.3678C37.5295 53.6457 36.784 53.6897 36.0843 53.4928C35.3845 53.2958 34.7713 52.8694 34.3432 52.282L30.1113 46.4882C29.8098 46.0758 29.4153 45.7404 28.9597 45.5092C28.5042 45.2779 28.0005 45.1574 27.4897 45.1574C26.9788 45.1574 26.4752 45.2779 26.0196 45.5092C25.5641 45.7404 25.1695 46.0758 24.868 46.4882L20.6362 52.282C20.208 52.8694 19.5948 53.2958 18.8951 53.4928C18.1954 53.6897 17.4498 53.6457 16.7781 53.3678C16.1064 53.0899 15.5477 52.5943 15.1916 51.9606C14.8355 51.3269 14.7028 50.5918 14.8148 49.8736L15.9158 42.7793C15.9942 42.2749 15.9525 41.7592 15.7943 41.2739C15.6361 40.7887 15.3657 40.3475 15.0052 39.9862C14.6446 39.625 14.2039 39.3538 13.7189 39.1947C13.234 39.0356 12.7183 38.993 12.2138 39.0704L5.11947 40.1783C4.40061 40.2924 3.66426 40.1612 3.02904 39.8059C2.39382 39.4505 1.89672 38.8917 1.61779 38.2194C1.33886 37.5471 1.29435 36.8005 1.49144 36.0998C1.68852 35.3992 2.11574 34.7852 2.70425 34.3569L8.50494 30.1182C8.91725 29.8174 9.25269 29.4235 9.48394 28.9685C9.7152 28.5135 9.83574 28.0104 9.83574 27.5C9.83574 26.9896 9.7152 26.4865 9.48394 26.0315C9.25269 25.5765 8.91725 25.1826 8.50494 24.8818L2.70425 20.6431C2.11574 20.2148 1.68852 19.6008 1.49144 18.9002C1.29435 18.1995 1.33886 17.4529 1.61779 16.7806C1.89672 16.1083 2.39382 15.5495 3.02904 15.1941C3.66426 14.8388 4.40061 14.7076 5.11947 14.8217L12.2138 15.9296C12.7183 16.007 13.234 15.9644 13.7189 15.8053C14.2039 15.6462 14.6446 15.375 15.0052 15.0137C15.3657 14.6525 15.6361 14.2113 15.7943 13.7261C15.9525 13.2408 15.9942 12.725 15.9158 12.2207L14.8217 5.12636C14.7097 4.40814 14.8424 3.67312 15.1985 3.03941C15.5545 2.40569 16.1133 1.91007 16.785 1.63219C17.4567 1.35431 18.2023 1.31029 18.902 1.50722C19.6017 1.70414 20.2149 2.13058 20.6431 2.718L24.8749 8.51182C25.1763 8.92552 25.5711 9.26213 26.0274 9.49421C26.4836 9.72628 26.9881 9.84725 27.5 9.84725C28.0118 9.84725 28.5164 9.72628 28.9726 9.49421C29.4288 9.26213 29.8237 8.92552 30.1251 8.51182Z" fill="url(#gradient1)" stroke="white" stroke-width="2" stroke-miterlimit="10"/>
<path d="M16.2736 15.2071C24.5754 22.5692 32.0719 30.7923 38.6369 39.7379H16.7896L38.63 15.2071H16.2736Z" fill="url(#gradient2)" stroke="white" stroke-width="1.4" stroke-miterlimit="10"/>
<defs>
<linearGradient id="gradient1" x1="1.3762" y1="27.4965" x2="53.6307" y2="27.4965" gradientUnits="userSpaceOnUse">
<stop stop-color="#290055"/>
<stop offset="1" stop-color="#0091E3"/>
</linearGradient>
<linearGradient id="gradient2" x1="27.4552" y1="15.2071" x2="27.4552" y2="39.7379" gradientUnits="userSpaceOnUse">
<stop stop-color="#7800BF"/>
<stop offset="1" stop-color="#4CF0FF"/>
</linearGradient>
</defs>
</svg>
